<svg width="6" height="10" viewBox="0 0 6 10" fill="none" xmlns="http://www.w3.org/2000/svg">
<path id="Vector" d="M5.83333 4.99998C5.8334 5.05968 5.82085 5.1188 5.79641 5.17395C5.77196 5.2291 5.73611 5.27919 5.6909 5.32134L0.829817 9.86679C0.639871 10.0444 0.332286 10.0444 0.14246 9.86679C-0.0473652 9.68918 -0.0474867 9.40156 0.14246 9.22406L4.65987 4.99998L0.14246 0.775894C-0.0474867 0.598281 -0.0474867 0.310667 0.14246 0.133167C0.332407 -0.0443325 0.639992 -0.044446 0.829817 0.133167L5.6909 4.67862C5.73611 4.72077 5.77196 4.77086 5.79641 4.82601C5.82085 4.88116 5.8334 4.94028 5.83333 4.99998Z" fill="black"/>
</svg>
