<svg width="20" height="20" viewBox="0 0 20 20" fill="none" xmlns="http://www.w3.org/2000/svg">
<path d="M9.9668 18.2725H2.49168C2.0332 18.2725 1.66113 17.9004 1.66113 17.4419V2.49172C1.66113 2.03324 2.03324 1.66117 2.49168 1.66117H9.9668C10.4261 1.66117 10.7973 1.28992 10.7973 0.830625C10.7973 0.371328 10.4261 0 9.9668 0H2.49168C1.11793 0 0 1.11797 0 2.49172V17.4419C0 18.8156 1.11793 19.9336 2.49168 19.9336H9.9668C10.4261 19.9336 10.7973 19.5623 10.7973 19.103C10.7973 18.6437 10.4261 18.2725 9.9668 18.2725Z" fill="black"/>
<path d="M18.9048 9.37486L13.855 4.39146C13.5294 4.06919 13.0029 4.07337 12.6806 4.39978C12.3583 4.72618 12.3616 5.25193 12.6889 5.57419L16.2977 9.13564H6.62742C6.16812 9.13564 5.79688 9.50689 5.79688 9.96618C5.79688 10.4255 6.16812 10.7968 6.62742 10.7968H16.2977L12.6889 14.3582C12.3617 14.6805 12.3592 15.2062 12.6806 15.5326C12.7578 15.611 12.8499 15.6733 12.9514 15.7158C13.0529 15.7582 13.1619 15.7801 13.272 15.7801C13.4829 15.7801 13.6939 15.7004 13.855 15.5409L18.9048 10.5575C18.9831 10.4802 19.0453 10.3881 19.0878 10.2866C19.1303 10.1851 19.1522 10.0762 19.1523 9.96615C19.1523 9.74365 19.0635 9.53185 18.9048 9.37486Z" fill="black"/>
</svg>
