<svg width="15" height="15" viewBox="0 0 15 15" fill="none" xmlns="http://www.w3.org/2000/svg">
<path fill-rule="evenodd" clip-rule="evenodd" d="M12.1296 6.68692C12.9787 7.62785 13.6117 8.44421 14.0286 9.17616C15.5553 11.8569 13.3834 14.5796 10.4747 14.5305C7.56606 14.5796 5.39417 11.8569 6.92089 9.17616C7.33778 8.44421 7.97083 7.62785 8.81991 6.68692C8.9237 6.71979 9.03193 6.73648 9.1408 6.73641H11.8087C11.9204 6.73641 12.0282 6.71903 12.1296 6.68692ZM1.33201 0C0.599385 0 0 0.599414 0 1.33201V11.0696C0 11.8023 0.599385 12.4017 1.33201 12.4017H6.23713C5.75771 11.2561 5.90276 10.0167 6.5136 8.94419C6.63838 8.72511 6.77525 8.50799 6.92118 8.29348C6.83678 8.23887 6.7807 8.14389 6.7807 8.03622V7.63813C6.7807 7.46947 6.91825 7.33192 7.08691 7.33192H7.64229C7.89053 7.0268 8.14881 6.72979 8.40729 6.44309C8.33069 6.37043 8.26522 6.28687 8.213 6.19512H7.08691C6.91825 6.19512 6.7807 6.05757 6.7807 5.88891V5.49079C6.7807 5.32213 6.91825 5.18458 7.08691 5.18458H8.19111C8.28648 4.99922 8.43362 4.84555 8.61466 4.74223L8.29643 4.42403C8.10275 4.23035 7.99805 3.9806 7.98217 3.72624H1.77601C1.60734 3.72624 1.46979 3.58869 1.46979 3.42003V2.21812C1.46979 2.04946 1.60734 1.91191 1.77601 1.91191H8.51273C8.6814 1.91191 8.81894 2.04946 8.81894 2.21812V2.60347C9.03504 2.5539 9.26487 2.57039 9.47493 2.65655C9.61696 2.31659 9.92505 2.06956 10.2888 2.0059V1.33201C10.2888 0.599414 9.68935 0 8.95676 0H1.33201ZM9.14083 6.26766C8.81188 6.26766 8.54282 5.99856 8.54282 5.66965C8.54282 5.34076 8.81191 5.07167 9.14083 5.07167H11.8087C12.1376 5.07167 12.4067 5.34076 12.4067 5.66968C12.4067 5.99853 12.1376 6.26766 11.8087 6.26766H9.14083ZM2.05734 5.18458H3.20183C3.37049 5.18458 3.50804 5.32213 3.50804 5.49079V5.88888C3.50804 6.05754 3.37049 6.19509 3.20183 6.19509H2.05734C1.88868 6.19509 1.75113 6.05754 1.75113 5.88888V5.49079C1.75113 5.32213 1.88868 5.18458 2.05734 5.18458ZM4.57213 9.47924C4.40347 9.47924 4.26592 9.61679 4.26592 9.78545V10.1835C4.26592 10.3522 4.40347 10.4897 4.57213 10.4897H5.71661C5.88527 10.4897 6.02282 10.3522 6.02282 10.1835V9.78545C6.02282 9.61679 5.88527 9.47924 5.71661 9.47924H4.57213ZM2.05734 9.47924H3.20183C3.37049 9.47924 3.50804 9.61679 3.50804 9.78545V10.1835C3.50804 10.3522 3.37049 10.4897 3.20183 10.4897H2.05734C1.88868 10.4897 1.75113 10.3522 1.75113 10.1835V9.78545C1.75113 9.61679 1.88868 9.47924 2.05734 9.47924ZM4.57213 7.33189C4.40347 7.33189 4.26592 7.46944 4.26592 7.63811V8.03619C4.26592 8.20485 4.40347 8.3424 4.57213 8.3424H5.71661C5.88527 8.3424 6.02282 8.20485 6.02282 8.03619V7.63811C6.02282 7.46944 5.88527 7.33189 5.71661 7.33189H4.57213ZM2.05734 7.33189H3.20183C3.37049 7.33189 3.50804 7.46944 3.50804 7.63811V8.03619C3.50804 8.20485 3.37049 8.3424 3.20183 8.3424H2.05734C1.88868 8.3424 1.75113 8.20485 1.75113 8.03619V7.63811C1.75113 7.46947 1.88868 7.33189 2.05734 7.33189ZM4.57213 5.18458H5.71661C5.88527 5.18458 6.02282 5.32213 6.02282 5.49079V5.88888C6.02282 6.05754 5.88527 6.19509 5.71661 6.19509H4.57213C4.40347 6.19509 4.26592 6.05754 4.26592 5.88888V5.49079C4.26592 5.32213 4.40347 5.18458 4.57213 5.18458ZM10.4441 11.7183C10.2644 11.7137 10.0899 11.665 9.95083 11.5724C9.82497 11.4885 9.72882 11.3659 9.68865 11.2049C9.68015 11.1703 9.66492 11.1377 9.64383 11.109C9.62274 11.0803 9.59621 11.0561 9.56575 11.0377C9.53529 11.0192 9.50149 11.007 9.4663 11.0016C9.4311 10.9962 9.39519 10.9978 9.36061 11.0063C9.32604 11.0148 9.29348 11.0301 9.26479 11.0512C9.23611 11.0722 9.21185 11.0988 9.19342 11.1292C9.17498 11.1597 9.16273 11.1935 9.15736 11.2287C9.15198 11.2639 9.15359 11.2998 9.1621 11.3344C9.23795 11.6386 9.41733 11.8687 9.65147 12.0246C9.81141 12.1311 9.99715 12.2015 10.1916 12.2358V12.4468C10.1924 12.5184 10.2214 12.5868 10.2722 12.6372C10.3231 12.6875 10.3918 12.7158 10.4634 12.7158C10.535 12.7158 10.6037 12.6875 10.6546 12.6372C10.7055 12.5868 10.7345 12.5184 10.7352 12.4468V12.241C10.9716 12.205 11.2124 12.1187 11.4015 11.9753C11.6287 11.8029 11.7798 11.556 11.772 11.2247C11.7714 11.1913 11.7692 11.158 11.7654 11.1248C11.7214 10.7618 11.525 10.5255 11.2645 10.3683C11.0358 10.2301 10.7614 10.1613 10.5099 10.12C10.3285 10.0903 10.1374 10.0399 9.9975 9.94852C9.88907 9.87773 9.81132 9.77525 9.80402 9.62543C9.79614 9.4633 9.86692 9.33249 9.97846 9.24182C10.0658 9.1708 10.1773 9.12144 10.2981 9.09712C10.3472 9.08726 10.3971 9.08165 10.4472 9.08036C10.4591 9.08108 10.471 9.08101 10.4829 9.08016C10.5497 9.08112 10.617 9.08971 10.6827 9.10635C10.8847 9.15756 11.0686 9.29071 11.1655 9.52143C11.2235 9.65979 11.3828 9.72489 11.5211 9.66686C11.6595 9.60882 11.7246 9.44956 11.6666 9.31122C11.496 8.90499 11.1713 8.67026 10.8143 8.57979C10.7881 8.57315 10.7617 8.56731 10.7352 8.5623V8.35172C10.7339 8.28049 10.7047 8.2126 10.6539 8.16268C10.6031 8.11276 10.5347 8.08479 10.4634 8.08479C10.3922 8.08479 10.3238 8.11276 10.273 8.16268C10.2221 8.2126 10.1929 8.28049 10.1916 8.35172V8.56638C9.98572 8.60789 9.79236 8.69481 9.63662 8.82143C9.39726 9.01605 9.24548 9.29862 9.26259 9.65095C9.27976 10.0049 9.45641 10.2424 9.70236 10.4029C9.91676 10.5429 10.18 10.6153 10.4229 10.6552C10.6179 10.6872 10.8261 10.7378 10.9842 10.8333C11.1108 10.9097 11.2058 11.0213 11.2261 11.1886C11.2288 11.2109 11.2303 11.2271 11.2305 11.2374C11.2337 11.3704 11.17 11.4718 11.0745 11.5443C10.9549 11.635 10.7869 11.6886 10.6189 11.709C10.5732 11.7145 10.5332 11.7177 10.4993 11.7185L10.4864 11.7187C10.4787 11.718 10.4711 11.7177 10.4634 11.7177C10.457 11.7177 10.4505 11.7179 10.4441 11.7183ZM9.13828 4.60295L8.6279 4.09257C8.3889 3.85356 8.3889 3.46248 8.6279 3.22351C8.83116 3.02021 9.15296 2.98588 9.39483 3.14112C9.48469 3.19878 9.58787 3.20798 9.68645 3.16717C9.78504 3.12633 9.85148 3.0469 9.87425 2.94258C9.93448 2.66672 10.1815 2.45851 10.4747 2.45845C10.7627 2.45845 11.0139 2.66145 11.0753 2.94258C11.098 3.0469 11.1645 3.12633 11.2631 3.16717C11.3617 3.20804 11.4649 3.19878 11.5547 3.14112C11.7923 2.9886 12.1142 3.01611 12.3216 3.22345V3.22351C12.5606 3.46251 12.5606 3.85359 12.3216 4.09257L11.8112 4.60295L11.8087 4.60292H9.1408L9.13828 4.60295Z" fill="#16375A"/>
</svg>
