<svg width="20" height="20" viewBox="0 0 25 25" fill="none" xmlns="http://www.w3.org/2000/svg">
<path fill="#16375A" d="M5.17383 25H19.8223C21.0339 25 22.0195 24.0144 22.0195 22.8027V7.32422H16.8926C15.681 7.32422 14.6953 6.33857 14.6953 5.12695V0H5.17383C3.96221 0 2.97656 0.985645 2.97656 2.19727V22.8027C2.97656 24.0144 3.96221 25 5.17383 25ZM8.10352 10.3027H16.8926C17.2974 10.3027 17.625 10.6303 17.625 11.0352C17.625 11.44 17.2974 11.7676 16.8926 11.7676H8.10352C7.69868 11.7676 7.37109 11.44 7.37109 11.0352C7.37109 10.6303 7.69868 10.3027 8.10352 10.3027ZM8.10352 13.2324H16.8926C17.2974 13.2324 17.625 13.56 17.625 13.9648C17.625 14.3697 17.2974 14.6973 16.8926 14.6973H8.10352C7.69868 14.6973 7.37109 14.3697 7.37109 13.9648C7.37109 13.56 7.69868 13.2324 8.10352 13.2324ZM8.10352 16.1621H16.8926C17.2974 16.1621 17.625 16.4897 17.625 16.8945C17.625 17.2994 17.2974 17.627 16.8926 17.627H8.10352C7.69868 17.627 7.37109 17.2994 7.37109 16.8945C7.37109 16.4897 7.69868 16.1621 8.10352 16.1621ZM8.10352 19.0918H13.9629C14.3677 19.0918 14.6953 19.4194 14.6953 19.8242C14.6953 20.2291 14.3677 20.5566 13.9629 20.5566H8.10352C7.69868 20.5566 7.37109 20.2291 7.37109 19.8242C7.37109 19.4194 7.69868 19.0918 8.10352 19.0918Z" />
<path fill="#16375A" d="M16.8887 5.85991H21.5865L16.1562 0.429688V5.12749C16.1562 5.53159 16.4846 5.85991 16.8887 5.85991Z" />
</svg>
