<svg width="57" height="38" viewBox="0 0 57 38" fill="none" xmlns="http://www.w3.org/2000/svg">
<path d="M56.216 24.304L55.6075 24.42L56.2003 24.1715C56.1809 24.0177 56.1602 23.8614 56.1287 23.7123C55.8439 22.3891 55.1627 21.2813 54.102 20.4221C53.2583 19.7397 52.2825 19.3149 51.2061 19.1622L50.8498 19.1165C50.8097 19.1089 50.6946 19.0994 50.6546 19.0994H50.017C49.9455 19.0994 49.8728 19.1077 49.7577 19.1314L49.6207 19.1503C49.6159 19.1503 49.4607 19.1716 49.4559 19.1728C49.2789 19.1988 49.0983 19.2261 48.9055 19.271C46.377 19.8829 44.5769 22.0033 44.4278 24.5479C44.3745 25.445 44.5442 26.3303 44.9321 27.1801C44.9333 27.1848 44.9358 27.1895 44.9369 27.1919C44.9939 27.328 45.2218 27.8357 45.7091 28.4275L38.6677 35.2944C38.5567 35.4017 38.4686 35.5295 38.4087 35.6703C38.3488 35.8111 38.3181 35.9622 38.3186 36.1147C38.3174 36.4259 38.441 36.7171 38.6677 36.9396C39.1126 37.3728 39.8871 37.3751 40.3477 36.9372L41.0387 36.2626L42.3357 37.5337C42.5611 37.7539 42.8593 37.8746 43.1757 37.8746C43.4909 37.8746 43.789 37.7539 44.0158 37.5361C44.4776 37.084 44.48 36.3502 44.0182 35.8933L42.7188 34.6222L43.7309 33.6375L44.766 34.6435C45.2096 35.0837 45.9951 35.0873 46.4509 34.6435C46.9103 34.1866 46.9078 33.4528 46.446 33.0031L45.4133 31.9971L47.5297 29.9341C47.64 29.9936 47.7519 30.0501 47.8655 30.1034C47.8788 30.1081 47.8922 30.1152 47.9055 30.1199C49.0559 30.6395 50.3056 30.7779 51.5214 30.5318C52.9299 30.2477 54.0984 29.54 54.993 28.4298C55.6379 27.6321 56.039 26.716 56.1869 25.7053L56.2391 25.3219C56.2427 25.2958 56.25 25.194 56.25 25.168V24.5786C56.2499 24.4861 56.2385 24.3939 56.216 24.304ZM53.8329 25.3787C53.7468 25.9764 53.5092 26.5196 53.1262 26.9931C52.5892 27.6606 51.8861 28.0867 51.0389 28.2595C50.3116 28.4038 49.5806 28.3186 48.8921 28.0085C47.6206 27.412 47.1454 26.335 47.1442 26.3326C47.1417 26.3279 47.1357 26.3172 47.1284 26.3042C47.1248 26.2924 47.1199 26.2829 47.1163 26.2735C46.8739 25.7574 46.7684 25.2225 46.8011 24.6804C46.8908 23.156 47.9648 21.8896 49.474 21.5251C49.5831 21.4991 49.7018 21.4849 49.88 21.4612L50.5637 21.421C50.657 21.4304 50.7504 21.4423 50.8558 21.4588C51.5007 21.55 52.0825 21.802 52.5832 22.2092C53.2305 22.7323 53.628 23.3785 53.8026 24.1881C53.8196 24.2674 53.8281 24.3466 53.8389 24.4461L53.8778 25.0497L53.8329 25.3787ZM28.6068 13.8374L47.8946 0.0360744C47.8073 0.0230648 47.7225 0 47.6304 0H2.33333L21.4672 13.7155C21.8381 14.0072 24.8346 16.208 28.6068 13.8374ZM0.0848314 1.39481C0.0363646 1.56053 0 1.73091 0 1.91202V30.3259C0 30.4727 0.0424157 30.6052 0.0763948 30.7414L18.5533 14.6345L0.0848314 1.39481ZM40.9671 22.6897C41.7877 19.3007 44.4545 16.6027 48.04 15.734C48.3419 15.6647 48.6243 15.6186 48.9007 15.5772V15.5784C48.9664 15.5677 49.0322 15.5583 49.0983 15.55L49.1371 15.5464C49.2632 15.5227 49.4183 15.5014 49.5892 15.486V1.91202C49.5892 1.886 49.582 1.86112 49.5807 1.8339L31.7099 14.6197L40.9671 22.6897ZM40.7465 25.7456L29.6177 16.0459C28.0226 16.9572 26.4734 17.3241 25.077 17.3241C23.2479 17.3241 21.6879 16.7371 20.6163 16.0862L2.08489 32.2397H36.5319L41.1611 27.7245C40.9441 27.0759 40.812 26.4155 40.7465 25.7456Z" fill="#085D95"/>
</svg>
