<svg width="6" height="10" viewBox="0 0 6 10" fill="none" xmlns="http://www.w3.org/2000/svg">
<path d="M-0.000325203 5.00002C-0.000391006 4.94032 0.0121579 4.8812 0.0366006 4.82605C0.0610433 4.7709 0.0968971 4.72081 0.142104 4.67866L5.00319 0.13321C5.19314 -0.0444033 5.50072 -0.0444033 5.69055 0.13321C5.88037 0.310823 5.88049 0.598436 5.69055 0.775936L1.17314 5.00002L5.69055 9.22411C5.88049 9.40172 5.88049 9.68933 5.69055 9.86683C5.5006 10.0443 5.19302 10.0444 5.00319 9.86683L0.142104 5.32138C0.0968971 5.27923 0.0610433 5.22914 0.0366006 5.17399C0.0121579 5.11884 -0.000391006 5.05972 -0.000325203 5.00002Z" fill="black"/>
</svg>
