<svg width="7" height="12" viewBox="0 0 7 12" fill="none" xmlns="http://www.w3.org/2000/svg">
<path d="M5.29289e-05 6.00002C-2.24113e-05 5.92839 0.0142508 5.85744 0.0420513 5.79126C0.0698519 5.72508 0.110631 5.66497 0.162049 5.61439L5.69095 0.159852C5.90699 -0.053284 6.25683 -0.053284 6.47273 0.159852C6.68864 0.372988 6.68878 0.718124 6.47273 0.931123L1.33473 6.00002L6.47273 11.0689C6.68878 11.2821 6.68878 11.6272 6.47273 11.8402C6.25669 12.0532 5.90685 12.0533 5.69095 11.8402L0.162049 6.38566C0.110631 6.33508 0.0698519 6.27497 0.0420513 6.20879C0.0142508 6.14261 -2.24113e-05 6.07166 5.29289e-05 6.00002Z" fill="#fff"/>
</svg>
