<svg width="15" height="15" viewBox="0 0 15 15" fill="none" xmlns="http://www.w3.org/2000/svg">
<g clip-path="url(#clip0_8201_66024)">
<path d="M9.375 4.0625C9.20924 4.0625 9.05027 3.99665 8.93306 3.87944C8.81585 3.76223 8.75 3.60326 8.75 3.4375V2.5H6.25V3.4375C6.25 3.60326 6.18415 3.76223 6.06694 3.87944C5.94973 3.99665 5.79076 4.0625 5.625 4.0625C5.45924 4.0625 5.30027 3.99665 5.18306 3.87944C5.06585 3.76223 5 3.60326 5 3.4375V2.5C5 1.81063 5.56063 1.25 6.25 1.25H8.75C9.43937 1.25 10 1.81063 10 2.5V3.4375C10 3.60326 9.93415 3.76223 9.81694 3.87944C9.69973 3.99665 9.54076 4.0625 9.375 4.0625ZM7.94375 9.6125C7.6433 9.71576 7.3163 9.71134 7.01875 9.6L0 7.2625V12.0313C0 12.9813 0.76875 13.75 1.71875 13.75H13.2812C14.2312 13.75 15 12.9813 15 12.0313V7.2625L7.94375 9.6125Z" fill="#CEB265"/>
<path d="M15 4.84375V6.275L7.65 8.725C7.6 8.74375 7.55 8.75 7.5 8.75C7.45 8.75 7.4 8.74375 7.35 8.725L0 6.275V4.84375C0 3.89375 0.76875 3.125 1.71875 3.125H13.2812C14.2312 3.125 15 3.89375 15 4.84375Z" fill="#CEB265"/>
</g>
<defs>
<clipPath id="clip0_8201_66024">
<rect width="15" height="15" fill="white"/>
</clipPath>
</defs>
</svg>
