<svg width="13" height="12" viewBox="0 0 13 12" fill="none" xmlns="http://www.w3.org/2000/svg">
<path d="M5.35742 6.09375H7.64258V6.85547H5.35742V6.09375Z" fill="#16375A"/>
<path d="M10.5467 6.85482H8.4043V7.23568C8.4043 7.44617 8.23393 7.61654 8.02344 7.61654H4.97656C4.76607 7.61654 4.5957 7.44617 4.5957 7.23568V6.85482H2.45327C2.21345 6.85501 1.97968 6.77965 1.78512 6.63945C1.59056 6.49924 1.44511 6.30131 1.36942 6.07376L0 1.96484V10.2826C0 10.9126 0.512586 11.4251 1.14258 11.4251H11.8574C12.4874 11.4251 13 10.9126 13 10.2826V1.96515L11.6305 6.07376C11.5548 6.30131 11.4094 6.49925 11.2149 6.63946C11.0203 6.77967 10.7866 6.85502 10.5468 6.85482H10.5467Z" fill="#16375A"/>
<path d="M8.0234 0H4.97653C4.34651 0 3.83395 0.512586 3.83395 1.14258V1.52344H0.655273L2.09172 5.83339C2.11701 5.90925 2.16554 5.97522 2.23042 6.02195C2.2953 6.06868 2.37325 6.0938 2.45321 6.09375H4.59567V5.71289C4.59567 5.5024 4.76604 5.33203 4.97653 5.33203H8.0234C8.23389 5.33203 8.40426 5.5024 8.40426 5.71289V6.09375H10.5467C10.7107 6.09375 10.8561 5.98922 10.9082 5.83339L12.3448 1.52344H9.16598V1.14258C9.16598 0.512561 8.65342 0 8.0234 0ZM4.59567 1.52344V1.14258C4.59567 0.93242 4.76637 0.761719 4.97653 0.761719H8.0234C8.23356 0.761719 8.40426 0.93242 8.40426 1.14258V1.52344H4.59567Z" fill="#16375A"/>
</svg>
