<svg width="20" height="20" viewBox="0 0 25 25" fill="none" xmlns="http://www.w3.org/2000/svg">
<g clip-path="url(#clip0_19561_218449)">
<path d="M12.5027 16.3711C9.01191 16.3711 6.17188 19.2111 6.17188 22.702C6.17188 22.904 6.18179 23.1036 6.20049 23.3007C8.09238 24.409 10.2519 25.0007 12.5027 25.0007C14.7536 25.0007 16.9131 24.409 18.805 23.3007C18.8237 23.1034 18.8336 22.904 18.8336 22.702C18.8336 19.2111 15.9936 16.3711 12.5027 16.3711Z" fill="#16375A"/>
<path d="M21.3389 3.66113C18.9779 1.30029 15.839 0 12.5 0C9.16099 0 6.02207 1.30024 3.66113 3.66113C1.30029 6.02207 0 9.16099 0 12.5C0 15.8388 1.30024 18.9779 3.66113 21.3389C3.99484 21.6724 4.34692 21.987 4.71572 22.2813C4.87959 19.2119 6.82695 16.6086 9.5377 15.4909C8.04766 14.5195 7.06064 12.8386 7.06064 10.931C7.06064 7.93169 9.50068 5.49165 12.5 5.49165C15.4993 5.49165 17.9394 7.93169 17.9394 10.931C17.9394 12.8386 16.9523 14.5195 15.4623 15.4909C18.173 16.6086 20.1204 19.212 20.2843 22.2813C20.653 21.9869 21.0051 21.6723 21.3389 21.3389C23.6997 18.9779 25 15.8388 25 12.5C25 9.16099 23.6998 6.02207 21.3389 3.66113Z" fill="#16375A"/>
<path d="M16.4803 10.9315C16.4803 8.7398 14.6973 6.95703 12.5058 6.95703C10.3142 6.95703 8.53125 8.73999 8.53125 10.9315C8.53125 13.1231 10.3142 14.9061 12.5058 14.9061C14.6973 14.9061 16.4803 13.1231 16.4803 10.9315Z" fill="#16375A"/>
</g>
<defs>
<clipPath id="clip0_19561_218449">
<rect width="25" height="25" fill="white"/>
</clipPath>
</defs>
</svg>
