<svg width="20" height="20" viewBox="0 0 20 20" fill="none" xmlns="http://www.w3.org/2000/svg">
<path d="M12.5 5.41602C12.279 5.41602 12.067 5.32822 11.9107 5.17194C11.7545 5.01566 11.6667 4.8037 11.6667 4.58268V3.33268H8.33333V4.58268C8.33333 4.8037 8.24554 5.01566 8.08926 5.17194C7.93297 5.32822 7.72101 5.41602 7.5 5.41602C7.27899 5.41602 7.06702 5.32822 6.91074 5.17194C6.75446 5.01566 6.66667 4.8037 6.66667 4.58268V3.33268C6.66667 2.41352 7.41417 1.66602 8.33333 1.66602H11.6667C12.5858 1.66602 13.3333 2.41352 13.3333 3.33268V4.58268C13.3333 4.8037 13.2455 5.01566 13.0893 5.17194C12.933 5.32822 12.721 5.41602 12.5 5.41602ZM10.5917 12.816C10.1911 12.9537 9.75506 12.9478 9.35833 12.7993L0 9.68268V16.041C0 17.3077 1.025 18.3327 2.29167 18.3327H17.7083C18.975 18.3327 20 17.3077 20 16.041V9.68268L10.5917 12.816Z" fill="#16375A"/>
<path d="M20 6.45768V8.36602L10.2 11.6327C10.1333 11.6577 10.0667 11.666 10 11.666C9.93333 11.666 9.86667 11.6577 9.8 11.6327L0 8.36602V6.45768C0 5.19102 1.025 4.16602 2.29167 4.16602H17.7083C18.975 4.16602 20 5.19102 20 6.45768Z" fill="#16375A"/>
</svg>
