<svg width="13" height="13" viewBox="0 0 13 13" fill="none" xmlns="http://www.w3.org/2000/svg">
<path d="M7.03125 0H0.46875C0.34443 0 0.225201 0.049386 0.137294 0.137294C0.0493861 0.225201 0 0.34443 0 0.46875V11.7188C0 11.8431 0.0493861 11.9623 0.137294 12.0502C0.225201 12.1381 0.34443 12.1875 0.46875 12.1875H1.875V9.375C1.875 9.25068 1.92439 9.13145 2.01229 9.04354C2.1002 8.95564 2.21943 8.90625 2.34375 8.90625H5.15625C5.28057 8.90625 5.3998 8.95564 5.48771 9.04354C5.57561 9.13145 5.625 9.25068 5.625 9.375V12.1875H7.03125C7.15557 12.1875 7.2748 12.1381 7.36271 12.0502C7.45061 11.9623 7.5 11.8431 7.5 11.7188V0.46875C7.5 0.34443 7.45061 0.225201 7.36271 0.137294C7.2748 0.049386 7.15557 0 7.03125 0ZM2.8125 6.09375H1.875C1.75068 6.09375 1.63145 6.04436 1.54354 5.95646C1.45564 5.86855 1.40625 5.74932 1.40625 5.625C1.40625 5.50068 1.45564 5.38145 1.54354 5.29354C1.63145 5.20564 1.75068 5.15625 1.875 5.15625H2.8125C2.93682 5.15625 3.05605 5.20564 3.14396 5.29354C3.23186 5.38145 3.28125 5.50068 3.28125 5.625C3.28125 5.74932 3.23186 5.86855 3.14396 5.95646C3.05605 6.04436 2.93682 6.09375 2.8125 6.09375ZM2.8125 4.21875H1.875C1.75068 4.21875 1.63145 4.16936 1.54354 4.08146C1.45564 3.99355 1.40625 3.87432 1.40625 3.75C1.40625 3.62568 1.45564 3.50645 1.54354 3.41854C1.63145 3.33064 1.75068 3.28125 1.875 3.28125H2.8125C2.93682 3.28125 3.05605 3.33064 3.14396 3.41854C3.23186 3.50645 3.28125 3.62568 3.28125 3.75C3.28125 3.87432 3.23186 3.99355 3.14396 4.08146C3.05605 4.16936 2.93682 4.21875 2.8125 4.21875ZM2.8125 2.34375H1.875C1.75068 2.34375 1.63145 2.29436 1.54354 2.20646C1.45564 2.11855 1.40625 1.99932 1.40625 1.875C1.40625 1.75068 1.45564 1.63145 1.54354 1.54354C1.63145 1.45564 1.75068 1.40625 1.875 1.40625H2.8125C2.93682 1.40625 3.05605 1.45564 3.14396 1.54354C3.23186 1.63145 3.28125 1.75068 3.28125 1.875C3.28125 1.99932 3.23186 2.11855 3.14396 2.20646C3.05605 2.29436 2.93682 2.34375 2.8125 2.34375ZM5.625 6.09375H4.6875C4.56318 6.09375 4.44395 6.04436 4.35604 5.95646C4.26814 5.86855 4.21875 5.74932 4.21875 5.625C4.21875 5.50068 4.26814 5.38145 4.35604 5.29354C4.44395 5.20564 4.56318 5.15625 4.6875 5.15625H5.625C5.74932 5.15625 5.86855 5.20564 5.95646 5.29354C6.04436 5.38145 6.09375 5.50068 6.09375 5.625C6.09375 5.74932 6.04436 5.86855 5.95646 5.95646C5.86855 6.04436 5.74932 6.09375 5.625 6.09375ZM2.8125 7.96875H1.875C1.75068 7.96875 1.63145 7.91936 1.54354 7.83146C1.45564 7.74355 1.40625 7.62432 1.40625 7.5C1.40625 7.37568 1.45564 7.25645 1.54354 7.16854C1.63145 7.08064 1.75068 7.03125 1.875 7.03125H2.8125C2.93682 7.03125 3.05605 7.08064 3.14396 7.16854C3.23186 7.25645 3.28125 7.37568 3.28125 7.5C3.28125 7.62432 3.23186 7.74355 3.14396 7.83146C3.05605 7.91936 2.93682 7.96875 2.8125 7.96875ZM5.625 7.96875H4.6875C4.56318 7.96875 4.44395 7.91936 4.35604 7.83146C4.26814 7.74355 4.21875 7.62432 4.21875 7.5C4.21875 7.37568 4.26814 7.25645 4.35604 7.16854C4.44395 7.08064 4.56318 7.03125 4.6875 7.03125H5.625C5.74932 7.03125 5.86855 7.08064 5.95646 7.16854C6.04436 7.25645 6.09375 7.37568 6.09375 7.5C6.09375 7.62432 6.04436 7.74355 5.95646 7.83146C5.86855 7.91936 5.74932 7.96875 5.625 7.96875ZM5.625 4.21875H4.6875C4.56318 4.21875 4.44395 4.16936 4.35604 4.08146C4.26814 3.99355 4.21875 3.87432 4.21875 3.75C4.21875 3.62568 4.26814 3.50645 4.35604 3.41854C4.44395 3.33064 4.56318 3.28125 4.6875 3.28125H5.625C5.74932 3.28125 5.86855 3.33064 5.95646 3.41854C6.04436 3.50645 6.09375 3.62568 6.09375 3.75C6.09375 3.87432 6.04436 3.99355 5.95646 4.08146C5.86855 4.16936 5.74932 4.21875 5.625 4.21875ZM5.625 2.34375H4.6875C4.56318 2.34375 4.44395 2.29436 4.35604 2.20646C4.26814 2.11855 4.21875 1.99932 4.21875 1.875C4.21875 1.75068 4.26814 1.63145 4.35604 1.54354C4.44395 1.45564 4.56318 1.40625 4.6875 1.40625H5.625C5.74932 1.40625 5.86855 1.45564 5.95646 1.54354C6.04436 1.63145 6.09375 1.75068 6.09375 1.875C6.09375 1.99932 6.04436 2.11855 5.95646 2.20646C5.86855 2.29436 5.74932 2.34375 5.625 2.34375Z" fill="#D0B064"/>
<path d="M2.8125 9.84375H4.6875V12.1875H2.8125V9.84375ZM11.7188 3.75H7.03125C6.90693 3.75 6.7877 3.79939 6.69979 3.88729C6.61189 3.9752 6.5625 4.09443 6.5625 4.21875V11.7188C6.5625 11.8431 6.61189 11.9623 6.69979 12.0502C6.7877 12.1381 6.90693 12.1875 7.03125 12.1875H11.7188C11.8431 12.1875 11.9623 12.1381 12.0502 12.0502C12.1381 11.9623 12.1875 11.8431 12.1875 11.7188V4.21875C12.1875 4.09443 12.1381 3.9752 12.0502 3.88729C11.9623 3.79939 11.8431 3.75 11.7188 3.75ZM9.84375 10.3125H8.90625C8.78193 10.3125 8.6627 10.2631 8.57479 10.1752C8.48689 10.0873 8.4375 9.96807 8.4375 9.84375C8.4375 9.71943 8.48689 9.6002 8.57479 9.51229C8.6627 9.42439 8.78193 9.375 8.90625 9.375H9.84375C9.96807 9.375 10.0873 9.42439 10.1752 9.51229C10.2631 9.6002 10.3125 9.71943 10.3125 9.84375C10.3125 9.96807 10.2631 10.0873 10.1752 10.1752C10.0873 10.2631 9.96807 10.3125 9.84375 10.3125ZM9.84375 8.4375H8.90625C8.78193 8.4375 8.6627 8.38811 8.57479 8.30021C8.48689 8.2123 8.4375 8.09307 8.4375 7.96875C8.4375 7.84443 8.48689 7.7252 8.57479 7.63729C8.6627 7.54939 8.78193 7.5 8.90625 7.5H9.84375C9.96807 7.5 10.0873 7.54939 10.1752 7.63729C10.2631 7.7252 10.3125 7.84443 10.3125 7.96875C10.3125 8.09307 10.2631 8.2123 10.1752 8.30021C10.0873 8.38811 9.96807 8.4375 9.84375 8.4375ZM9.84375 6.5625H8.90625C8.78193 6.5625 8.6627 6.51311 8.57479 6.42521C8.48689 6.3373 8.4375 6.21807 8.4375 6.09375C8.4375 5.96943 8.48689 5.8502 8.57479 5.76229C8.6627 5.67439 8.78193 5.625 8.90625 5.625H9.84375C9.96807 5.625 10.0873 5.67439 10.1752 5.76229C10.2631 5.8502 10.3125 5.96943 10.3125 6.09375C10.3125 6.21807 10.2631 6.3373 10.1752 6.42521C10.0873 6.51311 9.96807 6.5625 9.84375 6.5625Z" fill="#D0B064"/>
</svg>
