<svg width="20" height="20" viewBox="0 0 20 20" fill="none" xmlns="http://www.w3.org/2000/svg">
<g id="Frame" clip-path="url(#clip0_8733_14006)">
<g id="Group">
<path id="Vector" d="M2.58824 17.4902H1.80392C1.47922 17.4902 1.21569 17.2267 1.21569 16.902C1.21569 16.5773 1.47922 16.3137 1.80392 16.3137H2.58824V14.9804H1.80392C1.47922 14.9804 1.21569 14.7169 1.21569 14.3922C1.21569 14.0675 1.47922 13.8039 1.80392 13.8039H2.58824V12.4706H1.80392C1.47922 12.4706 1.21569 12.2071 1.21569 11.8824C1.21569 11.5576 1.47922 11.2941 1.80392 11.2941H2.58824V8.78431H0.588235C0.263529 8.78431 0 9.04784 0 9.37255V19.4118C0 19.7365 0.263529 20 0.588235 20H2.58992C2.58769 19.218 2.58824 19.7273 2.58824 17.4902ZM12.3137 0.588235C12.3137 0.263529 12.0502 0 11.7255 0H6.70588C6.38118 0 6.11765 0.263529 6.11765 0.588235V1.33333H12.3137V0.588235ZM15.9608 7.84314C13.7337 7.84314 11.9216 9.65529 11.9216 11.8824C11.9216 13.6659 14.3318 16.2235 15.5667 17.3388C15.6748 17.4362 15.8152 17.4901 15.9608 17.4901C16.1063 17.4901 16.2467 17.4362 16.3549 17.3388C17.6184 16.1976 20 13.6557 20 11.8824C20 9.65529 18.1878 7.84314 15.9608 7.84314ZM16.902 12.4706H15.0196C14.6949 12.4706 14.4314 12.2071 14.4314 11.8824C14.4314 11.5576 14.6949 11.2941 15.0196 11.2941H16.902C17.2267 11.2941 17.4902 11.5576 17.4902 11.8824C17.4902 12.2071 17.2267 12.4706 16.902 12.4706Z" fill="black"/>
<path id="Vector_2" d="M19.4117 18.8235H14.6666V18.1094C13.0675 16.6164 10.745 14.0637 10.745 11.8823C10.745 9.4529 12.4145 7.40624 14.6666 6.82937V3.098C14.6666 2.7733 14.4031 2.50977 14.0784 2.50977H4.35288C4.02818 2.50977 3.76465 2.7733 3.76465 3.098V20H19.4117C19.7366 20 19.9999 19.7366 19.9999 19.4117C19.9999 19.0869 19.7366 18.8235 19.4117 18.8235ZM10.6274 3.76467H11.5686C11.8933 3.76467 12.1568 4.0282 12.1568 4.3529C12.1568 4.67761 11.8933 4.94114 11.5686 4.94114H10.6274C10.3027 4.94114 10.0392 4.67761 10.0392 4.3529C10.0392 4.0282 10.3027 3.76467 10.6274 3.76467ZM7.80386 14.9804H6.86269C6.53798 14.9804 6.27445 14.7168 6.27445 14.3921C6.27445 14.0674 6.53798 13.8039 6.86269 13.8039H7.80386C8.12857 13.8039 8.3921 14.0674 8.3921 14.3921C8.3921 14.7168 8.12857 14.9804 7.80386 14.9804ZM7.80386 12.4706H6.86269C6.53798 12.4706 6.27445 12.207 6.27445 11.8823C6.27445 11.5576 6.53798 11.2941 6.86269 11.2941H7.80386C8.12857 11.2941 8.3921 11.5576 8.3921 11.8823C8.3921 12.207 8.12857 12.4706 7.80386 12.4706ZM7.80386 9.96075H6.86269C6.53798 9.96075 6.27445 9.69722 6.27445 9.37251C6.27445 9.04781 6.53798 8.78428 6.86269 8.78428H7.80386C8.12857 8.78428 8.3921 9.04781 8.3921 9.37251C8.3921 9.69722 8.12857 9.96075 7.80386 9.96075ZM7.80386 7.45094H6.86269C6.53798 7.45094 6.27445 7.18741 6.27445 6.86271C6.27445 6.538 6.53798 6.27447 6.86269 6.27447H7.80386C8.12857 6.27447 8.3921 6.538 8.3921 6.86271C8.3921 7.18741 8.12857 7.45094 7.80386 7.45094ZM7.80386 4.94114H6.86269C6.53798 4.94114 6.27445 4.67761 6.27445 4.3529C6.27445 4.0282 6.53798 3.76467 6.86269 3.76467H7.80386C8.12857 3.76467 8.3921 4.0282 8.3921 4.3529C8.3921 4.67761 8.12857 4.94114 7.80386 4.94114ZM10.0392 6.86271C10.0392 6.538 10.3027 6.27447 10.6274 6.27447H11.5686C11.8933 6.27447 12.1568 6.538 12.1568 6.86271C12.1568 7.18741 11.8933 7.45094 11.5686 7.45094H10.6274C10.3027 7.45094 10.0392 7.18741 10.0392 6.86271Z" fill="black"/>
</g>
</g>
<defs>
<clipPath id="clip0_8733_14006">
<rect width="20" height="20" fill="white"/>
</clipPath>
</defs>
</svg>
