<svg width="15" height="14" viewBox="0 0 14 14" fill="none" xmlns="http://www.w3.org/2000/svg">
<path d="M12.2501 13.1663V0H4.86689V2.94085H1.74989V13.1663H0V13.9866H14V13.1663H12.2501V13.1663ZM4.12871 11.7356H3.3084V10.5678H4.12871V11.7356ZM4.12871 9.74742H3.3084V8.57954H4.12871V9.74742ZM4.12871 7.75917H3.3084V6.59132H4.12871V7.75917ZM4.12871 5.77093H3.3084V4.60305H4.12871V5.77093ZM7.32793 12.1683H6.50762V10.7464H7.32793V12.1683ZM7.32793 9.92603H6.50762V8.50415H7.32793V9.92603ZM7.32793 7.68379H6.50762V6.26191H7.32793V7.68379ZM7.32793 5.44154H6.50762V4.01967H7.32793V5.44154ZM7.32793 3.19933H6.50762V1.77745H7.32793V3.19933ZM8.96864 13.5764H8.14833V10.7464H8.96864V13.5764ZM8.96864 9.92603H8.14833V8.50415H8.96864V9.92603ZM8.96864 7.68379H8.14833V6.26191H8.96864V7.68379ZM8.96864 5.44154H8.14833V4.01967H8.96864V5.44154ZM8.96864 3.19933H8.14833V1.77745H8.96864V3.19933ZM10.6094 12.1683H9.78906V10.7464H10.6094V12.1683ZM10.6094 9.92603H9.78906V8.50415H10.6094V9.92603ZM10.6094 7.68379H9.78906V6.26191H10.6094V7.68379ZM10.6094 5.44154H9.78906V4.01967H10.6094V5.44154ZM10.6094 3.19933H9.78906V1.77745H10.6094V3.19933Z" fill="#16375A"/>
</svg>
