<svg width="20" height="20" viewBox="0 0 20 20" fill="none" xmlns="http://www.w3.org/2000/svg">
<path d="M17.4114 1.17578H15.6467V2.94049C15.6467 3.29343 15.3526 3.52872 15.0585 3.52872C14.7644 3.52872 14.4702 3.29343 14.4702 2.94049V1.17578H5.05848V2.94049C5.05848 3.29343 4.76436 3.52872 4.47024 3.52872C4.17613 3.52872 3.88201 3.29343 3.88201 2.94049V1.17578H2.1173C1.23495 1.17578 0.587891 1.94049 0.587891 2.94049V5.05813H19.4114V2.94049C19.4114 1.94049 18.3526 1.17578 17.4114 1.17578ZM0.587891 6.29343V17.0581C0.587891 18.117 1.23495 18.8228 2.17613 18.8228H17.4702C18.4114 18.8228 19.4702 18.0581 19.4702 17.0581V6.29343H0.587891ZM5.82318 16.1758H4.41142C4.17613 16.1758 3.94083 15.9993 3.94083 15.7052V14.2346C3.94083 13.9993 4.1173 13.764 4.41142 13.764H5.88201C6.1173 13.764 6.3526 13.9405 6.3526 14.2346V15.7052C6.29377 15.9993 6.1173 16.1758 5.82318 16.1758ZM5.82318 10.8817H4.41142C4.17613 10.8817 3.94083 10.7052 3.94083 10.4111V8.94049C3.94083 8.70519 4.1173 8.4699 4.41142 8.4699H5.88201C6.1173 8.4699 6.3526 8.64637 6.3526 8.94049V10.4111C6.29377 10.7052 6.1173 10.8817 5.82318 10.8817ZM10.5291 16.1758H9.05848C8.82318 16.1758 8.58789 15.9993 8.58789 15.7052V14.2346C8.58789 13.9993 8.76436 13.764 9.05848 13.764H10.5291C10.7644 13.764 10.9997 13.9405 10.9997 14.2346V15.7052C10.9997 15.9993 10.8232 16.1758 10.5291 16.1758ZM10.5291 10.8817H9.05848C8.82318 10.8817 8.58789 10.7052 8.58789 10.4111V8.94049C8.58789 8.70519 8.76436 8.4699 9.05848 8.4699H10.5291C10.7644 8.4699 10.9997 8.64637 10.9997 8.94049V10.4111C10.9997 10.7052 10.8232 10.8817 10.5291 10.8817ZM15.235 16.1758H13.7644C13.5291 16.1758 13.2938 15.9993 13.2938 15.7052V14.2346C13.2938 13.9993 13.4702 13.764 13.7644 13.764H15.235C15.4702 13.764 15.7055 13.9405 15.7055 14.2346V15.7052C15.7055 15.9993 15.5291 16.1758 15.235 16.1758ZM15.235 10.8817H13.7644C13.5291 10.8817 13.2938 10.7052 13.2938 10.4111V8.94049C13.2938 8.70519 13.4702 8.4699 13.7644 8.4699H15.235C15.4702 8.4699 15.7055 8.64637 15.7055 8.94049V10.4111C15.7055 10.7052 15.5291 10.8817 15.235 10.8817Z" fill="#16375A"/>
</svg>
