<svg width="30" height="30" viewBox="0 0 24 25" fill="none" xmlns="http://www.w3.org/2000/svg">
<path d="M7.48836 17.9999C7.39178 17.9999 7.29736 17.9713 7.21705 17.9176C7.13673 17.864 7.07414 17.7877 7.03717 17.6985C7.00021 17.6092 6.99054 17.5111 7.00939 17.4163C7.02823 17.3216 7.07475 17.2346 7.14306 17.1663L16.1663 8.14303C16.2579 8.05145 16.3821 8 16.5116 8C16.6412 8 16.7654 8.05145 16.8569 8.14303C16.9485 8.23461 17 8.35882 17 8.48834C17 8.61785 16.9485 8.74206 16.8569 8.83364L7.83367 17.8569C7.78837 17.9023 7.73454 17.9383 7.67528 17.9628C7.61602 17.9874 7.5525 18 7.48836 17.9999Z" fill="black"/>
<path d="M16.5116 17.9999C16.4475 18 16.384 17.9874 16.3247 17.9628C16.2654 17.9383 16.2116 17.9023 16.1663 17.8569L7.14303 8.83364C7.05145 8.74206 7 8.61785 7 8.48834C7 8.35882 7.05145 8.23461 7.14303 8.14303C7.23461 8.05145 7.35882 8 7.48834 8C7.61785 8 7.74206 8.05145 7.83364 8.14303L16.8569 17.1663C16.9252 17.2346 16.9717 17.3216 16.9906 17.4163C17.0094 17.5111 16.9998 17.6092 16.9628 17.6985C16.9258 17.7877 16.8632 17.864 16.7829 17.9176C16.7026 17.9713 16.6082 17.9999 16.5116 17.9999Z" fill="black"/>
</svg>
