<svg width="25" height="25" viewBox="0 0 25 25" fill="none" xmlns="http://www.w3.org/2000/svg">
<g id="Group">
<path id="Vector" d="M19.4446 2.7778V11.1112C19.4446 11.8479 19.1519 12.5544 18.631 13.0754C18.11 13.5963 17.4035 13.889 16.6668 13.889H6.0181C5.71758 13.889 5.42517 13.9865 5.18476 14.1668L1.11112 17.2223C1.00794 17.2997 0.885261 17.3468 0.756815 17.3584C0.628368 17.37 0.499234 17.3456 0.383882 17.2879C0.26853 17.2302 0.171518 17.1416 0.103715 17.0319C0.0359132 16.9222 0 16.7957 0 16.6668V2.7778C0 2.04108 0.29266 1.33454 0.813598 0.813598C1.33454 0.29266 2.04108 0 2.7778 0H16.6668C17.4035 0 18.11 0.29266 18.631 0.813598C19.1519 1.33454 19.4446 2.04108 19.4446 2.7778Z" fill="#16375A"/>
<path id="Vector_2" d="M24.9993 23.616C24.9993 23.745 24.9634 23.8714 24.8955 23.9811C24.8277 24.0908 24.7307 24.1795 24.6154 24.2371C24.5 24.2948 24.3709 24.3192 24.2425 24.3076C24.114 24.2961 23.9913 24.2489 23.8881 24.1716L19.8145 21.116C19.5741 20.9357 19.2817 20.8382 18.9812 20.8382H8.33248C7.59577 20.8382 6.88922 20.5455 6.36829 20.0246C5.84735 19.5037 5.55469 18.7971 5.55469 18.0604V15.9771H16.6659C17.3042 15.9771 17.9364 15.8513 18.5262 15.607C19.1159 15.3627 19.6518 15.0047 20.1032 14.5533C20.5546 14.1019 20.9127 13.566 21.157 12.9762C21.4013 12.3864 21.527 11.7543 21.527 11.1159V6.94922H22.2215C22.9582 6.94922 23.6647 7.24188 24.1857 7.76282C24.7066 8.28375 24.9993 8.9903 24.9993 9.72702V23.616Z" fill="#085D95" fill-opacity="0.19"/>
</g>
</svg>
