<svg width="17" height="13" viewBox="0 0 17 13" fill="none" xmlns="http://www.w3.org/2000/svg">
<path d="M12.7499 2.3027V6.35144C12.7499 6.70937 12.558 7.05264 12.2164 7.30573C11.8749 7.55883 11.4116 7.70102 10.9285 7.70102H3.9461C3.74905 7.70102 3.55731 7.74837 3.39967 7.83598L0.728567 9.32051C0.660915 9.35811 0.580471 9.381 0.496248 9.38663C0.412025 9.39225 0.327351 9.38039 0.251714 9.35237C0.176077 9.32435 0.112465 9.28128 0.0680068 9.22797C0.0235485 9.17467 0 9.11325 0 9.0506V2.3027C0 1.94477 0.191899 1.6015 0.533481 1.34841C0.875062 1.09531 1.33835 0.953125 1.82142 0.953125H10.9285C11.4116 0.953125 11.8749 1.09531 12.2164 1.34841C12.558 1.6015 12.7499 1.94477 12.7499 2.3027Z" fill="#046EB8"/>
<path d="M16.3905 12.4295C16.3905 12.4922 16.367 12.5536 16.3225 12.6069C16.2781 12.6602 16.2145 12.7033 16.1388 12.7313C16.0632 12.7593 15.9785 12.7712 15.8943 12.7655C15.8101 12.7599 15.7296 12.737 15.662 12.6994L12.9909 11.2149C12.8332 11.1273 12.6415 11.0799 12.4444 11.0799H5.46204C4.97897 11.0799 4.51569 10.9377 4.17411 10.6846C3.83252 10.4315 3.64063 10.0883 3.64062 9.73035V8.71816H10.9263C11.3449 8.71816 11.7594 8.65707 12.1461 8.53838C12.5328 8.41969 12.8842 8.24573 13.1802 8.02642C13.4762 7.80711 13.711 7.54675 13.8711 7.26021C14.0313 6.97366 14.1138 6.66655 14.1138 6.3564V4.33203H14.5691C15.0522 4.33203 15.5155 4.47422 15.8571 4.72731C16.1986 4.98041 16.3905 5.32368 16.3905 5.68161V12.4295Z" fill="#085D95" fill-opacity="0.19"/>
</svg>
