<svg width="20" height="20" viewBox="0 0 25 25" fill="#16375A" xmlns="http://www.w3.org/2000/svg">
<g clip-path="url(#clip0_19567_218465)">
<path fill="#16375A" fill-rule="evenodd" clip-rule="evenodd" d="M17.7031 3.26108C17.7032 3.10431 17.6679 2.94954 17.5999 2.80831C17.5319 2.66707 17.4328 2.54302 17.3102 2.44539C17.1875 2.34776 17.0444 2.27908 16.8915 2.24446C16.7386 2.20985 16.5798 2.21019 16.4271 2.24546L3.92708 5.13088C3.69783 5.18381 3.49325 5.31281 3.34667 5.49685C3.20008 5.68089 3.12011 5.90913 3.11979 6.14442V21.8767H2.59896C2.46082 21.8767 2.32835 21.9316 2.23067 22.0293C2.133 22.1269 2.07813 22.2594 2.07812 22.3975C2.07813 22.5357 2.133 22.6682 2.23067 22.7658C2.32835 22.8635 2.46082 22.9184 2.59896 22.9184H8.32812V19.7934C8.32812 19.5171 8.43787 19.2522 8.63322 19.0568C8.82857 18.8615 9.09352 18.7517 9.36979 18.7517H11.4531C11.7294 18.7517 11.9943 18.8615 12.1897 19.0568C12.385 19.2522 12.4948 19.5171 12.4948 19.7934V22.9184H17.7031V3.26108ZM6.76562 8.33504C6.62749 8.33504 6.49502 8.38992 6.39734 8.48759C6.29966 8.58527 6.24479 8.71774 6.24479 8.85588V9.89754C6.24479 10.0357 6.29966 10.1682 6.39734 10.2658C6.49502 10.3635 6.62749 10.4184 6.76562 10.4184H7.80729C7.94543 10.4184 8.0779 10.3635 8.17558 10.2658C8.27325 10.1682 8.32812 10.0357 8.32812 9.89754V8.85588C8.32812 8.71774 8.27325 8.58527 8.17558 8.48759C8.0779 8.38992 7.94543 8.33504 7.80729 8.33504H6.76562ZM6.24479 11.9809C6.24479 11.8427 6.29966 11.7103 6.39734 11.6126C6.49502 11.5149 6.62749 11.46 6.76562 11.46H7.80729C7.94543 11.46 8.0779 11.5149 8.17558 11.6126C8.27325 11.7103 8.32812 11.8427 8.32812 11.9809V13.0225C8.32812 13.1607 8.27325 13.2932 8.17558 13.3908C8.0779 13.4885 7.94543 13.5434 7.80729 13.5434H6.76562C6.62749 13.5434 6.49502 13.4885 6.39734 13.3908C6.29966 13.2932 6.24479 13.1607 6.24479 13.0225V11.9809ZM6.76562 14.585C6.62749 14.585 6.49502 14.6399 6.39734 14.7376C6.29966 14.8353 6.24479 14.9677 6.24479 15.1059V16.1475C6.24479 16.2857 6.29966 16.4182 6.39734 16.5158C6.49502 16.6135 6.62749 16.6684 6.76562 16.6684H7.80729C7.94543 16.6684 8.0779 16.6135 8.17558 16.5158C8.27325 16.4182 8.32812 16.2857 8.32812 16.1475V15.1059C8.32812 14.9677 8.27325 14.8353 8.17558 14.7376C8.0779 14.6399 7.94543 14.585 7.80729 14.585H6.76562ZM9.36979 8.85588C9.36979 8.71774 9.42466 8.58527 9.52234 8.48759C9.62001 8.38992 9.75249 8.33504 9.89062 8.33504H10.9323C11.0704 8.33504 11.2029 8.38992 11.3006 8.48759C11.3983 8.58527 11.4531 8.71774 11.4531 8.85588V9.89754C11.4531 10.0357 11.3983 10.1682 11.3006 10.2658C11.2029 10.3635 11.0704 10.4184 10.9323 10.4184H9.89062C9.75249 10.4184 9.62001 10.3635 9.52234 10.2658C9.42466 10.1682 9.36979 10.0357 9.36979 9.89754V8.85588ZM9.89062 11.46C9.75249 11.46 9.62001 11.5149 9.52234 11.6126C9.42466 11.7103 9.36979 11.8427 9.36979 11.9809V13.0225C9.36979 13.1607 9.42466 13.2932 9.52234 13.3908C9.62001 13.4885 9.75249 13.5434 9.89062 13.5434H10.9323C11.0704 13.5434 11.2029 13.4885 11.3006 13.3908C11.3983 13.2932 11.4531 13.1607 11.4531 13.0225V11.9809C11.4531 11.8427 11.3983 11.7103 11.3006 11.6126C11.2029 11.5149 11.0704 11.46 10.9323 11.46H9.89062ZM9.36979 15.1059C9.36979 14.9677 9.42466 14.8353 9.52234 14.7376C9.62001 14.6399 9.75249 14.585 9.89062 14.585H10.9323C11.0704 14.585 11.2029 14.6399 11.3006 14.7376C11.3983 14.8353 11.4531 14.9677 11.4531 15.1059V16.1475C11.4531 16.2857 11.3983 16.4182 11.3006 16.5158C11.2029 16.6135 11.0704 16.6684 10.9323 16.6684H9.89062C9.75249 16.6684 9.62001 16.6135 9.52234 16.5158C9.42466 16.4182 9.36979 16.2857 9.36979 16.1475V15.1059ZM13.0156 8.33504C12.8775 8.33504 12.745 8.38992 12.6473 8.48759C12.5497 8.58527 12.4948 8.71774 12.4948 8.85588V9.89754C12.4948 10.0357 12.5497 10.1682 12.6473 10.2658C12.745 10.3635 12.8775 10.4184 13.0156 10.4184H14.0573C14.1954 10.4184 14.3279 10.3635 14.4256 10.2658C14.5233 10.1682 14.5781 10.0357 14.5781 9.89754V8.85588C14.5781 8.71774 14.5233 8.58527 14.4256 8.48759C14.3279 8.38992 14.1954 8.33504 14.0573 8.33504H13.0156ZM12.4948 11.9809C12.4948 11.8427 12.5497 11.7103 12.6473 11.6126C12.745 11.5149 12.8775 11.46 13.0156 11.46H14.0573C14.1954 11.46 14.3279 11.5149 14.4256 11.6126C14.5233 11.7103 14.5781 11.8427 14.5781 11.9809V13.0225C14.5781 13.1607 14.5233 13.2932 14.4256 13.3908C14.3279 13.4885 14.1954 13.5434 14.0573 13.5434H13.0156C12.8775 13.5434 12.745 13.4885 12.6473 13.3908C12.5497 13.2932 12.4948 13.1607 12.4948 13.0225V11.9809ZM13.0156 14.585C12.8775 14.585 12.745 14.6399 12.6473 14.7376C12.5497 14.8353 12.4948 14.9677 12.4948 15.1059V16.1475C12.4948 16.2857 12.5497 16.4182 12.6473 16.5158C12.745 16.6135 12.8775 16.6684 13.0156 16.6684H14.0573C14.1954 16.6684 14.3279 16.6135 14.4256 16.5158C14.5233 16.4182 14.5781 16.2857 14.5781 16.1475V15.1059C14.5781 14.9677 14.5233 14.8353 14.4256 14.7376C14.3279 14.6399 14.1954 14.585 14.0573 14.585H13.0156Z"/>
<path d="M18.75 5.92969V22.9182H22.3958C22.534 22.9182 22.6664 22.8634 22.7641 22.7657C22.8618 22.668 22.9167 22.5355 22.9167 22.3974C22.9167 22.2593 22.8618 22.1268 22.7641 22.0291C22.6664 21.9314 22.534 21.8766 22.3958 21.8766H21.875V8.13594C21.8749 7.94254 21.821 7.75299 21.7192 7.58851C21.6175 7.42404 21.472 7.29114 21.299 7.20469L18.75 5.92969ZM11.4583 22.9182H9.375V19.7932H11.4583V22.9182Z" fill="#16375A"/>
</g>
<defs>
<clipPath id="clip0_19567_218465">
<rect width="25" height="25" fill="white"/>
</clipPath>
</defs>
</svg>
