<svg width="16" height="12" viewBox="0 0 16 12" fill="none" xmlns="http://www.w3.org/2000/svg">
<path d="M15.5 10.3113V8.15612C15.5 8.01322 15.4342 7.87617 15.3169 7.77513C15.1997 7.67409 15.0408 7.61732 14.875 7.61732C14.7092 7.61732 14.5503 7.67409 14.4331 7.77513C14.3158 7.87617 14.25 8.01322 14.25 8.15612V10.3113C14.25 10.4542 14.1842 10.5912 14.0669 10.6923C13.9497 10.7933 13.7908 10.8501 13.625 10.8501H2.375C2.20924 10.8501 2.05027 10.7933 1.93306 10.6923C1.81585 10.5912 1.75 10.4542 1.75 10.3113V8.15612C1.75 8.01322 1.68415 7.87617 1.56694 7.77513C1.44973 7.67409 1.29076 7.61732 1.125 7.61732C0.95924 7.61732 0.800269 7.67409 0.683058 7.77513C0.565848 7.87617 0.5 8.01322 0.5 8.15612V10.3113C0.5 10.74 0.697544 11.1511 1.04917 11.4542C1.40081 11.7574 1.87772 11.9277 2.375 11.9277H13.625C14.1223 11.9277 14.5992 11.7574 14.9508 11.4542C15.3025 11.1511 15.5 10.74 15.5 10.3113ZM11.5125 7.49879L8.3875 9.65396C8.27716 9.72913 8.14063 9.77002 8 9.77002C7.85937 9.77002 7.72284 9.72913 7.6125 9.65396L4.4875 7.49879C4.37364 7.40613 4.30426 7.28001 4.2931 7.14537C4.28195 7.01073 4.32982 6.87738 4.42725 6.77172C4.52468 6.66605 4.66457 6.59576 4.81924 6.57475C4.97392 6.55374 5.1321 6.58355 5.2625 6.65827L7.375 8.11301V0.613012C7.375 0.470115 7.44085 0.333071 7.55806 0.232028C7.67527 0.130984 7.83424 0.0742188 8 0.0742188C8.16576 0.0742188 8.32473 0.130984 8.44194 0.232028C8.55915 0.333071 8.625 0.470115 8.625 0.613012V8.11301L10.7375 6.65827C10.8004 6.60706 10.875 6.56767 10.9565 6.5426C11.0381 6.51754 11.1247 6.50734 11.211 6.51266C11.2974 6.51797 11.3815 6.53869 11.458 6.57349C11.5346 6.60829 11.6019 6.65642 11.6558 6.71482C11.7096 6.77323 11.7488 6.84064 11.7709 6.91278C11.7929 6.98493 11.7974 7.06024 11.7839 7.13394C11.7704 7.20764 11.7394 7.27812 11.6926 7.34093C11.6459 7.40373 11.5846 7.45749 11.5125 7.49879Z" fill="#16375A"/>
</svg>
