<svg width="45" height="43" viewBox="0 0 45 43" fill="none" xmlns="http://www.w3.org/2000/svg">
<path fill-rule="evenodd" clip-rule="evenodd" d="M20.3766 22.3819H20.3687L5.07713 30.843C5.0087 30.8802 4.93238 30.9034 4.85336 30.9109C4.77434 30.9185 4.69449 30.9102 4.61925 30.8867L0.379931 29.5822C0.253235 29.5437 0.145888 29.4642 0.0776948 29.3584C0.00950158 29.2526 -0.0149359 29.1276 0.00889117 29.0065L0.672026 25.4063C0.708881 25.1885 0.798241 24.9811 0.933511 24.7995C1.06878 24.6179 1.24651 24.4666 1.45358 24.3568C1.75751 24.1834 2.11671 24.1091 2.47196 24.1455L4.24821 24.3131C4.38076 24.3254 4.51367 24.2931 4.62246 24.2222C4.73126 24.1512 4.80862 24.0463 4.8403 23.9269L5.18765 22.6515C5.22311 22.5326 5.30251 22.4289 5.41208 22.3584C5.52166 22.2878 5.65452 22.2549 5.78763 22.2652L7.62704 22.4402C7.76273 22.4532 7.89895 22.4206 8.01064 22.3482C8.12233 22.2759 8.20197 22.1688 8.23491 22.0466C8.37702 21.5 8.5428 20.815 8.58227 20.7421C8.66911 20.514 8.91384 20.3704 9.17436 20.3923L11.0138 20.5672C11.1467 20.5814 11.2806 20.5499 11.3898 20.4786C11.4991 20.4073 11.576 20.3013 11.6058 20.1809L12.0243 18.6869C12.0401 18.6212 12.0699 18.5591 12.1119 18.504C12.1539 18.449 12.2073 18.4022 12.269 18.3663L16.3425 16.1216C15.9873 13.865 16.5257 11.5659 17.8588 9.64619C19.1919 7.72649 21.2303 6.31505 23.5998 5.67096C25.9694 5.02686 28.511 5.19332 30.7583 6.13979C33.0056 7.08625 34.8078 8.74921 35.8339 10.8234C36.1087 11.3671 36.3202 11.9363 36.4655 12.5215L20.3766 22.3819Z" fill="#95A5A5"/>
<path fill-rule="evenodd" clip-rule="evenodd" d="M4.55351 28.4642C4.38119 28.4638 4.21372 28.4115 4.07665 28.3151C3.93958 28.2187 3.84044 28.0835 3.79437 27.9302C3.74829 27.7769 3.75781 27.614 3.82148 27.4661C3.88514 27.3183 3.99944 27.1938 4.14695 27.1115L16.7726 20.1262C16.9521 20.0298 17.1655 20.0026 17.3666 20.0504C17.5677 20.0983 17.7403 20.2174 17.8469 20.3819C17.9536 20.5464 17.9857 20.7431 17.9364 20.9293C17.887 21.1155 17.7602 21.2763 17.5833 21.3768L4.95771 28.3607C4.83555 28.4282 4.69589 28.4639 4.55351 28.4642Z" fill="#7F8C8D"/>
<path fill-rule="evenodd" clip-rule="evenodd" d="M39.157 24.9394C38.0313 26.6971 36.3193 28.071 34.2771 28.8553C32.2349 29.6396 29.9724 29.7922 27.8284 29.2902L17.1551 42.5103C17.1076 42.5704 17.046 42.62 16.975 42.6553C16.9039 42.6906 16.8252 42.7108 16.7446 42.7143L12.2922 42.9986C12.1587 43.0084 12.0259 42.9732 11.9185 42.8995C11.811 42.8258 11.7362 42.7185 11.708 42.5977L10.8396 39.034C10.7879 38.8196 10.7866 38.5975 10.8356 38.3825C10.8846 38.1676 10.9829 37.9648 11.1238 37.7878C11.3369 37.5203 11.6393 37.3257 11.9843 37.2339L13.6895 36.7675C13.8206 36.7333 13.9334 36.6556 14.0062 36.5494C14.0791 36.4431 14.1068 36.3158 14.0842 36.1918L13.8868 34.9018C13.867 34.7781 13.8959 34.6519 13.9684 34.5463C14.0408 34.4406 14.152 34.3625 14.2816 34.3261L16.0499 33.8451C16.1801 33.8095 16.2918 33.7316 16.3644 33.6257C16.437 33.5198 16.4655 33.3932 16.4446 33.2694C16.3578 32.7155 16.2236 32.0304 16.2394 31.943C16.2311 31.8263 16.2655 31.7104 16.3371 31.614C16.4087 31.5175 16.5133 31.446 16.6341 31.411L18.4025 30.93C18.5336 30.8958 18.6464 30.8181 18.7192 30.7119C18.7921 30.6056 18.8198 30.4783 18.7972 30.3542L18.5604 28.8311C18.5423 28.6974 18.5789 28.5623 18.663 28.4521L21.4971 24.9467C20.9869 24.148 20.609 23.2834 20.3761 22.3814C19.8638 20.486 19.9997 18.4906 20.7651 16.6693C21.5305 14.848 22.888 13.2901 24.651 12.2096C26.4141 11.1291 28.4962 10.579 30.6115 10.6347C32.7269 10.6905 34.7716 11.3494 36.465 12.521C36.7743 12.7302 37.0696 12.9566 37.3492 13.1988C39.0472 14.677 40.1508 16.6438 40.4793 18.777C40.8078 20.9101 40.3415 23.083 39.157 24.9394Z" fill="#1853A4"/>
<path fill-rule="evenodd" clip-rule="evenodd" d="M15.3861 40.5534C15.2395 40.5534 15.0958 40.5157 14.9711 40.4446C14.8464 40.3734 14.7456 40.2716 14.68 40.1505C14.6145 40.0295 14.5867 39.894 14.5999 39.7592C14.613 39.6244 14.6666 39.4956 14.7546 39.3873L24.9132 26.813C25.0388 26.6584 25.2258 26.5561 25.4331 26.5288C25.6403 26.5015 25.8509 26.5513 26.0184 26.6672C26.1859 26.7832 26.2966 26.9559 26.3262 27.1472C26.3558 27.3385 26.3019 27.5329 26.1763 27.6875L16.0201 40.2597C15.9465 40.3509 15.8509 40.425 15.7408 40.476C15.6308 40.527 15.5093 40.5535 15.3861 40.5534Z" fill="#133C74"/>
<path d="M32.6843 19.3766C33.9923 19.3766 35.0526 18.3977 35.0526 17.1902C35.0526 15.9828 33.9923 15.0039 32.6843 15.0039C31.3763 15.0039 30.3159 15.9828 30.3159 17.1902C30.3159 18.3977 31.3763 19.3766 32.6843 19.3766Z" fill="#95A5A5"/>
<path fill-rule="evenodd" clip-rule="evenodd" d="M45 9.1104C44.995 10.6954 44.5442 12.2521 43.6917 13.628C42.8393 15.0038 41.6144 16.1518 40.137 16.9594C40.0991 16.9812 40.0596 17.0009 40.0186 17.0177C38.5321 17.8071 36.8468 18.2218 35.1319 18.2201H35.0293C34.9425 18.2201 34.8635 18.2201 34.7767 18.2128C33.2161 18.1662 31.6911 17.7711 30.3321 17.0614C30.3463 16.7152 30.4576 16.3785 30.6558 16.0848C30.6897 16.0119 30.7347 15.9427 30.79 15.8808C30.8358 15.8195 30.8887 15.7642 30.9479 15.7131C31.0031 15.7423 31.0584 15.7714 31.1215 15.8006C32.3102 16.4126 33.6447 16.7432 35.0056 16.7626H35.1319C36.6093 16.7648 38.06 16.3998 39.3318 15.7058C39.352 15.6962 39.3706 15.6839 39.387 15.6694C40.4773 15.0685 41.4032 14.2443 42.0934 13.2604C42.7836 12.2765 43.2195 11.1593 43.3675 9.99506C43.5154 8.83086 43.3714 7.65084 42.9466 6.5462C42.5219 5.44155 41.8277 4.44185 40.9177 3.62434C40.0077 2.80683 38.9063 2.19341 37.6986 1.83146C36.4909 1.46952 35.2092 1.36875 33.9525 1.53694C32.6959 1.70513 31.498 2.13778 30.4514 2.80145C29.4047 3.46512 28.5374 4.34205 27.9164 5.36448C27.3436 5.29176 26.7654 5.26251 26.1875 5.27702C27.1325 3.39454 28.7455 1.86643 30.7596 0.945699C32.7737 0.0249669 35.068 -0.233167 37.2626 0.214036C39.4573 0.661238 41.4207 1.78696 42.8278 3.40481C44.2349 5.02266 45.0012 7.03562 45 9.1104Z" fill="#BDC3C7"/>
</svg>
