<svg width="15" height="15" viewBox="0 0 15 15" fill="none" xmlns="http://www.w3.org/2000/svg">
<g clip-path="url(#clip0_21649_107202)">
<path d="M13.5938 7.03125C13.4694 7.03125 13.3502 7.08064 13.2623 7.16854C13.1744 7.25645 13.125 7.37568 13.125 7.5V11.7188C13.125 12.0917 12.9768 12.4494 12.7131 12.7131C12.4494 12.9768 12.0917 13.125 11.7188 13.125H3.28125C2.90829 13.125 2.5506 12.9768 2.28688 12.7131C2.02316 12.4494 1.875 12.0917 1.875 11.7188V3.28125C1.875 2.90829 2.02316 2.5506 2.28688 2.28688C2.5506 2.02316 2.90829 1.875 3.28125 1.875H7.5C7.62432 1.875 7.74355 1.82561 7.83146 1.73771C7.91936 1.6498 7.96875 1.53057 7.96875 1.40625C7.96875 1.28193 7.91936 1.1627 7.83146 1.07479C7.74355 0.986886 7.62432 0.9375 7.5 0.9375H3.28125C2.65965 0.9375 2.06351 1.18443 1.62397 1.62397C1.18443 2.06351 0.9375 2.65965 0.9375 3.28125V11.7188C0.9375 12.3404 1.18443 12.9365 1.62397 13.376C2.06351 13.8156 2.65965 14.0625 3.28125 14.0625H11.7188C12.3404 14.0625 12.9365 13.8156 13.376 13.376C13.8156 12.9365 14.0625 12.3404 14.0625 11.7188V7.5C14.0625 7.37568 14.0131 7.25645 13.9252 7.16854C13.8373 7.08064 13.7181 7.03125 13.5938 7.03125Z" fill="#046EB8"/>
<path d="M10.3113 1.87501H12.4629L7.166 7.1672C7.12206 7.21077 7.08719 7.26262 7.06339 7.31974C7.0396 7.37686 7.02734 7.43813 7.02734 7.50001C7.02734 7.56189 7.0396 7.62316 7.06339 7.68028C7.08719 7.7374 7.12206 7.78924 7.166 7.83282C7.20958 7.87675 7.26142 7.91163 7.31854 7.93543C7.37566 7.95922 7.43693 7.97148 7.49881 7.97148C7.56069 7.97148 7.62196 7.95922 7.67908 7.93543C7.7362 7.91163 7.78805 7.87675 7.83162 7.83282L13.1238 2.54063V4.68751C13.1238 4.81183 13.1732 4.93106 13.2611 5.01896C13.349 5.10687 13.4682 5.15626 13.5926 5.15626C13.7169 5.15626 13.8361 5.10687 13.924 5.01896C14.0119 4.93106 14.0613 4.81183 14.0613 4.68751V1.40626C14.0617 1.34457 14.0498 1.28341 14.0265 1.2263C14.0032 1.16919 13.9688 1.11725 13.9254 1.07345C13.8816 1.03 13.8296 0.99563 13.7725 0.972303C13.7154 0.948975 13.6543 0.937151 13.5926 0.937508H10.3113C10.187 0.937508 10.0678 0.986894 9.97985 1.0748C9.89195 1.16271 9.84256 1.28194 9.84256 1.40626C9.84256 1.53058 9.89195 1.64981 9.97985 1.73771C10.0678 1.82562 10.187 1.87501 10.3113 1.87501Z" fill="#046EB8"/>
</g>
<defs>
<clipPath id="clip0_21649_107202">
<rect width="15" height="15" fill="white"/>
</clipPath>
</defs>
</svg>
