<svg width="20" height="20" viewBox="0 0 15 15" fill="none" xmlns="http://www.w3.org/2000/svg">
<path d="M1.25 5.78077H3.13188C3.23452 6.18809 3.47019 6.54949 3.80152 6.80768C4.13285 7.06587 4.54089 7.20608 4.96094 7.20608C5.38099 7.20608 5.78902 7.06587 6.12035 6.80768C6.45168 6.54949 6.68735 6.18809 6.79 5.78077H13.75C13.8743 5.78077 13.9936 5.73139 14.0815 5.64348C14.1694 5.55557 14.2188 5.43635 14.2188 5.31202C14.2188 5.1877 14.1694 5.06848 14.0815 4.98057C13.9936 4.89266 13.8743 4.84327 13.75 4.84327H6.79C6.68735 4.43596 6.45168 4.07456 6.12035 3.81637C5.78902 3.55818 5.38099 3.41797 4.96094 3.41797C4.54089 3.41797 4.13285 3.55818 3.80152 3.81637C3.47019 4.07456 3.23452 4.43596 3.13188 4.84327H1.25C1.12568 4.84327 1.00645 4.89266 0.918544 4.98057C0.830636 5.06848 0.78125 5.1877 0.78125 5.31202C0.78125 5.43635 0.830636 5.55557 0.918544 5.64348C1.00645 5.73139 1.12568 5.78077 1.25 5.78077ZM4.005 5.3039C4.00715 5.05083 4.10946 4.80892 4.28955 4.63112C4.46964 4.45331 4.71283 4.35408 4.9659 4.35516C5.21898 4.35623 5.46132 4.45752 5.63989 4.63685C5.81846 4.81618 5.91872 5.05895 5.91872 5.31202C5.91872 5.5651 5.81846 5.80787 5.63989 5.9872C5.46132 6.16653 5.21898 6.26782 4.9659 6.26889C4.71283 6.26997 4.46964 6.17074 4.28955 5.99293C4.10946 5.81512 4.00715 5.57322 4.005 5.32015V5.31202V5.3039ZM1.25 10.1558H8.21C8.31265 10.5631 8.54832 10.9245 8.87965 11.1827C9.21098 11.4409 9.61901 11.5811 10.0391 11.5811C10.4591 11.5811 10.8671 11.4409 11.1985 11.1827C11.5298 10.9245 11.7655 10.5631 11.8681 10.1558H13.75C13.8743 10.1558 13.9936 10.1064 14.0815 10.0185C14.1694 9.93057 14.2188 9.81135 14.2188 9.68702C14.2188 9.5627 14.1694 9.44348 14.0815 9.35557C13.9936 9.26766 13.8743 9.21827 13.75 9.21827H11.8681C11.7655 8.81096 11.5298 8.44956 11.1985 8.19137C10.8671 7.93318 10.4591 7.79297 10.0391 7.79297C9.61901 7.79297 9.21098 7.93318 8.87965 8.19137C8.54832 8.44956 8.31265 8.81096 8.21 9.21827H1.25C1.12568 9.21827 1.00645 9.26766 0.918544 9.35557C0.830636 9.44348 0.78125 9.5627 0.78125 9.68702C0.78125 9.81135 0.830636 9.93057 0.918544 10.0185C1.00645 10.1064 1.12568 10.1558 1.25 10.1558ZM10.0394 8.73015C10.2915 8.73063 10.5332 8.83053 10.7121 9.00815C10.8911 9.18578 10.9927 9.4268 10.995 9.6789V9.69515C10.9934 9.8841 10.9359 10.0683 10.8297 10.2247C10.7235 10.381 10.5735 10.5023 10.3984 10.5735C10.2234 10.6446 10.0312 10.6624 9.84606 10.6244C9.66095 10.5865 9.49121 10.4946 9.35825 10.3603C9.22529 10.2261 9.13506 10.0554 9.09894 9.86997C9.06281 9.68449 9.08241 9.49248 9.15525 9.31813C9.2281 9.14378 9.35094 8.9949 9.50828 8.89026C9.66562 8.78562 9.85042 8.72991 10.0394 8.73015Z" fill="#906F2C"/>
</svg>
