<svg width="20" height="18" viewBox="0 0 15 14" fill="none" xmlns="http://www.w3.org/2000/svg">
<path d="M11.875 5.625C12.9105 5.625 13.75 4.78553 13.75 3.75C13.75 2.71447 12.9105 1.875 11.875 1.875C10.8395 1.875 10 2.71447 10 3.75C10 4.78553 10.8395 5.625 11.875 5.625Z" fill="#16375A"/>
<path d="M3.125 5.625C4.16053 5.625 5 4.78553 5 3.75C5 2.71447 4.16053 1.875 3.125 1.875C2.08947 1.875 1.25 2.71447 1.25 3.75C1.25 4.78553 2.08947 5.625 3.125 5.625Z" fill="#16375A"/>
<path d="M7.5 5C8.88071 5 10 3.88071 10 2.5C10 1.11929 8.88071 0 7.5 0C6.11929 0 5 1.11929 5 2.5C5 3.88071 6.11929 5 7.5 5Z" fill="#16375A"/>
<path d="M13.75 6.25H11.5391C11.7595 6.62966 11.8754 7.06097 11.875 7.5V11.875H14.375C14.5408 11.875 14.6997 11.8092 14.8169 11.6919C14.9342 11.5747 15 11.4158 15 11.25V7.5C15 7.16848 14.8683 6.85054 14.6339 6.61612C14.3995 6.3817 14.0815 6.25 13.75 6.25ZM3.46133 6.25H1.25C0.918479 6.25 0.600537 6.3817 0.366117 6.61612C0.131696 6.85054 0 7.16848 0 7.5L0 11.25C0 11.4158 0.065848 11.5747 0.183058 11.6919C0.300269 11.8092 0.45924 11.875 0.625 11.875H3.125V7.5C3.12468 7.06093 3.24073 6.62963 3.46133 6.25ZM9.375 5H8.75L7.5 8.75L6.25 5H5.625C5.12772 5 4.65081 5.19754 4.29917 5.54917C3.94754 5.90081 3.75 6.37772 3.75 6.875V12.5C3.75 12.6658 3.81585 12.8247 3.93306 12.9419C4.05027 13.0592 4.20924 13.125 4.375 13.125H10.625C10.7908 13.125 10.9497 13.0592 11.0669 12.9419C11.1842 12.8247 11.25 12.6658 11.25 12.5V6.875C11.25 6.37772 11.0525 5.90081 10.7008 5.54917C10.3492 5.19754 9.87228 5 9.375 5Z" fill="#16375A"/>
</svg>
