<svg width="17" height="15" viewBox="0 0 17 15" fill="none" xmlns="http://www.w3.org/2000/svg">
<path d="M10.625 3.1875C10.4371 3.1875 10.257 3.11287 10.1241 2.98003C9.99129 2.8472 9.91667 2.66703 9.91667 2.47917V1.41667H7.08333V2.47917C7.08333 2.66703 7.00871 2.8472 6.87587 2.98003C6.74303 3.11287 6.56286 3.1875 6.375 3.1875C6.18714 3.1875 6.00697 3.11287 5.87413 2.98003C5.74129 2.8472 5.66667 2.66703 5.66667 2.47917V1.41667C5.66667 0.635375 6.30204 0 7.08333 0H9.91667C10.698 0 11.3333 0.635375 11.3333 1.41667V2.47917C11.3333 2.66703 11.2587 2.8472 11.1259 2.98003C10.993 3.11287 10.8129 3.1875 10.625 3.1875ZM9.00292 9.4775C8.66241 9.59453 8.2918 9.58952 7.95458 9.46333L0 6.81417V12.2188C0 13.2954 0.87125 14.1667 1.94792 14.1667H15.0521C16.1287 14.1667 17 13.2954 17 12.2188V6.81417L9.00292 9.4775Z" fill="#CCAA65"/>
<path d="M17 4.07292V5.695L8.67 8.47167C8.61333 8.49292 8.55667 8.5 8.5 8.5C8.44333 8.5 8.38667 8.49292 8.33 8.47167L0 5.695V4.07292C0 2.99625 0.87125 2.125 1.94792 2.125H15.0521C16.1287 2.125 17 2.99625 17 4.07292Z" fill="#CCAA65"/>
</svg>
