<svg width="42" height="40" viewBox="0 0 42 40" fill="none" xmlns="http://www.w3.org/2000/svg">
<path d="M37.3525 3.77922C32.1802 -1.25974 23.7449 -1.25974 18.5726 3.77922C15.0195 7.20115 13.7869 12.2637 15.3337 16.8573C9.8714 22.1308 5.80086 26.078 0.36263 31.3748C0.12085 31.5857 0 31.8904 0 32.1951V38.8279C0 39.156 0.12085 39.4371 0.36263 39.6482C0.580078 39.8825 0.870117 39.9998 1.2085 39.9998H8.04867C8.36288 39.9998 8.67708 39.8825 8.89453 39.6482C9.52295 39.0622 9.98218 38.5935 10.6107 38.0075C10.8765 37.7497 10.9973 37.3982 10.9491 37.0467C10.8765 36.3904 10.804 35.8983 10.7314 35.2654C11.6499 35.1718 12.3508 35.1014 13.2935 35.0312C13.8735 34.9608 14.3085 34.5389 14.3811 33.9765C14.4535 33.0859 14.5261 32.3827 14.6227 31.4921C15.2754 31.5858 15.783 31.6327 16.4596 31.703C17.1365 31.7968 17.789 31.2577 17.789 30.5545V28.3592H20.0127C20.3269 28.3592 20.641 28.2811 20.8586 28.0467C21.9705 26.9686 22.7539 26.2323 23.8658 25.1308C28.603 26.6307 33.8238 25.4355 37.3525 21.9901C42.5491 16.9745 42.5491 8.79489 37.3525 3.77922ZM33.9447 12.0527C32.5427 13.4356 30.2224 13.4356 28.8206 12.0527C27.3945 10.6932 27.3945 8.44341 28.8206 7.08397C30.2224 5.70108 32.5427 5.70108 33.9447 7.08397C35.3706 8.44341 35.3706 10.6933 33.9447 12.0527Z" fill="#336DBC"/>
<path d="M37.3527 21.9903C33.824 25.4357 28.6032 26.6308 23.866 25.131C22.7541 26.2325 21.9706 26.9689 20.8587 28.0468C20.6412 28.2813 20.3272 28.3594 20.0129 28.3594H17.7892V30.5546C17.7892 31.2577 17.1367 31.7969 16.4599 31.703C15.7832 31.6328 15.2756 31.5859 14.623 31.4922C14.5264 32.3828 14.4538 33.0859 14.3814 33.9765C14.3088 34.539 13.8737 34.9608 13.2937 35.0312C12.3511 35.1015 11.6501 35.1719 10.7317 35.2655C10.8043 35.8984 10.8767 36.3904 10.9493 37.0468C10.9976 37.3982 10.8767 37.7499 10.6109 38.0076C9.9825 38.5936 9.52328 39.0623 8.89478 39.6482C8.67733 39.8825 8.36312 39.9999 8.04891 39.9999H1.20866C0.870281 39.9999 0.580242 39.8826 0.362793 39.6482L28.8209 12.0528C30.2226 13.4356 32.543 13.4356 33.9449 12.0528C35.3708 10.6933 35.3708 8.44349 33.9449 7.08404L37.3528 3.7793C42.5493 8.79505 42.5493 16.9746 37.3527 21.9903Z" fill="#1853A4"/>
</svg>
