<svg width="18" height="18" viewBox="0 0 18 18" fill="none" xmlns="http://www.w3.org/2000/svg">
<path d="M14.1869 6.95703H3.81453C3.72116 7.29965 3.53996 7.61196 3.28885 7.86307C3.03774 8.11418 2.72543 8.29538 2.38281 8.38875V11.6145C2.72527 11.7078 3.03746 11.8888 3.28855 12.1396C3.53965 12.3905 3.72094 12.7025 3.81453 13.0449H14.1869C14.2803 12.7024 14.4614 12.3903 14.7124 12.1393C14.9634 11.8883 15.2755 11.7072 15.6179 11.6138V8.38875C15.2754 8.29534 14.9632 8.11412 14.7122 7.86301C14.4612 7.6119 14.2802 7.2996 14.1869 6.95703ZM9.00038 11.7219C8.04991 11.7219 7.27941 10.9514 7.27941 10.0009C7.27941 9.05047 8.04991 8.27998 9.00038 8.27998C9.95084 8.27998 10.7213 9.05047 10.7213 10.0009C10.7204 10.951 9.95042 11.7209 9.00038 11.7219Z" fill="#16375A"/>
<path d="M9.00034 9.33984C8.63503 9.33984 8.33887 9.63601 8.33887 10.0013C8.33887 10.3666 8.63503 10.6628 9.00034 10.6628C9.36565 10.6628 9.66182 10.3666 9.66182 10.0013C9.66143 9.63615 9.36551 9.34023 9.00034 9.33984Z" fill="#16375A"/>
<path d="M17.2107 4.57422H0.788612C0.353198 4.57521 0.00056506 4.92812 0 5.36354V14.6394C0.00155392 15.0743 0.354328 15.4263 0.789319 15.4269H17.2114C17.6461 15.426 17.9984 15.0741 18 14.6394V5.36354C17.9994 4.92784 17.6464 4.57482 17.2107 4.57422ZM16.6771 12.0733C16.6771 12.3658 16.4399 12.603 16.1473 12.603C15.6112 12.6038 15.1769 13.0382 15.1761 13.5742C15.1761 13.8668 14.9389 14.104 14.6464 14.104H3.35505C3.06249 14.104 2.8253 13.8668 2.8253 13.5742C2.82453 13.0382 2.39017 12.6038 1.8541 12.603C1.56154 12.603 1.32436 12.3658 1.32436 12.0733V7.92926C1.32436 7.6367 1.56154 7.39952 1.8541 7.39952C2.3907 7.39874 2.8253 6.96351 2.8253 6.42691C2.8253 6.13435 3.06249 5.89717 3.35505 5.89717H14.6464C14.9389 5.89717 15.1761 6.13435 15.1761 6.42691C15.1761 6.96351 15.6107 7.39874 16.1473 7.39952C16.4399 7.39952 16.6771 7.6367 16.6771 7.92926V12.0733Z" fill="#16375A"/>
</svg>
