<svg width="18" height="11" viewBox="0 0 18 11" fill="none" xmlns="http://www.w3.org/2000/svg">
<path d="M14.1869 2.38281H3.81453C3.72116 2.72543 3.53996 3.03774 3.28885 3.28885C3.03774 3.53996 2.72543 3.72116 2.38281 3.81453V7.04032C2.72527 7.13357 3.03746 7.31456 3.28855 7.56541C3.53965 7.81625 3.72094 8.12827 3.81453 8.47063H14.1869C14.2803 8.12819 14.4614 7.81606 14.7124 7.56508C14.9634 7.3141 15.2755 7.13298 15.6179 7.03962V3.81453C15.2754 3.72112 14.9632 3.5399 14.7122 3.28879C14.4612 3.03768 14.2802 2.72539 14.1869 2.38281ZM9.00038 7.14769C8.04991 7.14769 7.27941 6.37719 7.27941 5.42672C7.27941 4.47626 8.04991 3.70576 9.00038 3.70576C9.95084 3.70576 10.7213 4.47626 10.7213 5.42672C10.7204 6.37677 9.95042 7.1467 9.00038 7.14769Z" fill="#16375A"/>
<path d="M9.00034 4.76562C8.63503 4.76562 8.33887 5.06179 8.33887 5.4271C8.33887 5.79241 8.63503 6.08857 9.00034 6.08857C9.36565 6.08857 9.66182 5.79241 9.66182 5.4271C9.66143 5.06193 9.36551 4.76601 9.00034 4.76562Z" fill="#16375A"/>
<path d="M17.2107 0H0.788612C0.353198 0.000988856 0.00056506 0.353904 0 0.789319V10.0651C0.00155392 10.5001 0.354328 10.8521 0.789319 10.8527H17.2114C17.6461 10.8517 17.9984 10.4998 18 10.0651V0.789319C17.9994 0.353622 17.6464 0.000600377 17.2107 0ZM16.6771 7.49906C16.6771 7.79162 16.4399 8.0288 16.1473 8.0288C15.6112 8.02958 15.1769 8.46393 15.1761 9C15.1761 9.29256 14.9389 9.52974 14.6464 9.52974H3.35505C3.06249 9.52974 2.8253 9.29256 2.8253 9C2.82453 8.46393 2.39017 8.02958 1.8541 8.0288C1.56154 8.0288 1.32436 7.79162 1.32436 7.49906V3.35505C1.32436 3.06249 1.56154 2.8253 1.8541 2.8253C2.3907 2.82452 2.8253 2.38929 2.8253 1.85269C2.8253 1.56013 3.06249 1.32295 3.35505 1.32295H14.6464C14.9389 1.32295 15.1761 1.56013 15.1761 1.85269C15.1761 2.38929 15.6107 2.82452 16.1473 2.8253C16.4399 2.8253 16.6771 3.06249 16.6771 3.35505V7.49906Z" fill="#16375A"/>
</svg>
