<svg width="17" height="16" viewBox="0 0 10 11" fill="none" xmlns="http://www.w3.org/2000/svg">
<path d="M6.17551 2.421L0.6734 7.45189C0.645693 7.47729 0.625948 7.50902 0.616221 7.54377L0.00634441 9.7818C-0.00262534 9.81502 -0.00207564 9.84978 0.0079404 9.88274C0.0179564 9.91571 0.0371003 9.94575 0.0635229 9.96997C0.104108 10.007 0.159058 10.0277 0.216358 10.0278C0.234034 10.0278 0.251642 10.0258 0.268785 10.0218L2.71664 9.46417C2.7547 9.45542 2.78944 9.43738 2.81715 9.41196L8.31976 4.38143L6.17551 2.421ZM9.68287 1.73505L9.07039 1.17509C8.66105 0.800827 7.94759 0.801199 7.53872 1.17509L6.78847 1.86104L8.93262 3.82139L9.68287 3.13545C9.88734 2.94858 9.99997 2.69984 9.99997 2.4353C9.99997 2.17075 9.88734 1.92201 9.68287 1.73505Z" fill="#16375A"/>
</svg>
