<svg width="14" height="18" viewBox="0 0 14 18" fill="none" xmlns="http://www.w3.org/2000/svg">
<path d="M7.00004 8.82935C9.26587 8.82935 11.1025 7.00185 11.1025 4.74768C11.1025 2.49352 9.26671 0.666016 7.00004 0.666016C4.73337 0.666016 2.89754 2.49352 2.89754 4.74768C2.89754 7.00185 4.73337 8.82935 7.00004 8.82935ZM9.13671 10.5302H4.86337C2.38504 10.5302 0.333374 12.571 0.333374 15.0368C0.333374 15.6319 0.590041 16.1427 1.10254 16.3977C1.87171 16.8227 3.58087 17.3327 7.00004 17.3327C10.4192 17.3327 12.1284 16.8227 12.8975 16.3977C13.1309 16.255 13.324 16.0551 13.4586 15.817C13.5932 15.5789 13.6648 15.3104 13.6667 15.0368C13.6667 12.486 11.6159 10.5302 9.13671 10.5302Z" fill="#949494"/>
</svg>
