<svg width="20" height="20" viewBox="0 0 20 20" fill="none" xmlns="http://www.w3.org/2000/svg">
<path d="M9.99967 9.82935C12.2655 9.82935 14.1022 8.00185 14.1022 5.74768C14.1022 3.49352 12.2663 1.66602 9.99967 1.66602C7.73301 1.66602 5.89717 3.49352 5.89717 5.74768C5.89717 8.00185 7.73301 9.82935 9.99967 9.82935ZM12.1363 11.5302H7.86301C5.38467 11.5302 3.33301 13.571 3.33301 16.0368C3.33301 16.6319 3.58967 17.1427 4.10217 17.3977C4.87134 17.8227 6.58051 18.3327 9.99967 18.3327C13.4188 18.3327 15.128 17.8227 15.8972 17.3977C16.1305 17.255 16.3236 17.0551 16.4582 16.817C16.5928 16.5789 16.6644 16.3104 16.6663 16.0368C16.6663 13.486 14.6155 11.5302 12.1363 11.5302Z" fill="#CCAA65"/>
</svg>
