<svg width="55" height="50" viewBox="0 0 55 50" fill="none" xmlns="http://www.w3.org/2000/svg">
<path d="M32.162 21.6197H28.7766V16.6306C28.7766 14.7979 27.2565 13.3046 25.3911 13.3046C23.5257 13.3046 22.0056 14.7979 22.0056 16.6306V21.6197H18.6201V16.6306C18.6201 12.962 21.6569 9.97852 25.3911 9.97852C29.1253 9.97852 32.162 12.962 32.162 16.6306V21.6197Z" fill="#455A64"/>
<path d="M53.1047 15.0869C52.2414 14.7477 51.2528 15.1601 50.9075 16.0149L49.8952 18.5028C46.9905 7.86276 37.1218 0 25.3911 0C11.3888 0 0 11.1888 0 24.9453C0 38.7018 11.3888 49.8906 25.3911 49.8906C32.1722 49.8906 38.5505 47.2963 43.3477 42.5866C44.0079 41.9381 44.0079 40.8837 43.3477 40.2351C42.6875 39.5865 41.6143 39.5865 40.9542 40.2351C36.7934 44.3162 31.2683 46.5646 25.3911 46.5646C13.2575 46.5646 3.38548 36.8658 3.38548 24.9453C3.38548 13.0248 13.2575 3.32604 25.3911 3.32604C35.9572 3.32604 44.8035 10.6832 46.9126 20.4552L43.517 17.1158C42.8568 16.4672 41.7836 16.4672 41.1235 17.1158C40.4633 17.7644 40.4633 18.8187 41.1235 19.4673L47.8944 26.1194C48.2127 26.4387 48.646 26.6083 49.0895 26.6083C49.2012 26.6083 49.3163 26.5984 49.4314 26.5751C49.7056 26.52 49.9615 26.3987 50.176 26.2222C50.3906 26.0457 50.557 25.8195 50.6604 25.564L54.0458 17.2489C54.3912 16.3941 53.9714 15.4262 53.1047 15.0869Z" fill="#455A64"/>
<path d="M33.8545 19.957H16.9271C15.9927 19.957 15.2344 20.7021 15.2344 21.6201V34.9242C15.2344 35.8422 15.9927 36.5872 16.9271 36.5872H33.8545C34.7889 36.5872 35.5473 35.8422 35.5473 34.9242V21.6201C35.5473 20.7021 34.7889 19.957 33.8545 19.957Z" fill="#1853A4"/>
</svg>
