<svg width="15" height="15" viewBox="0 0 15 15" fill="none" xmlns="http://www.w3.org/2000/svg">
<g clip-path="url(#clip0_16520_213807)">
<path d="M10.1362 6.63811C10.8798 6.63811 11.4826 6.0353 11.4826 5.29171C11.4826 4.54811 10.8798 3.94531 10.1362 3.94531C9.3926 3.94531 8.78979 4.54811 8.78979 5.29171C8.78979 6.0353 9.3926 6.63811 10.1362 6.63811Z" fill="#16375A"/>
<path d="M4.60378 9.03275C4.93427 9.03275 5.20218 8.76483 5.20218 8.43434C5.20218 8.10385 4.93427 7.83594 4.60378 7.83594C4.27329 7.83594 4.00537 8.10385 4.00537 8.43434C4.00537 8.76483 4.27329 9.03275 4.60378 9.03275Z" fill="#16375A"/>
<path d="M4.30172 5.14471C4.46525 4.98105 4.46515 4.71585 4.30149 4.55229C4.13787 4.38877 3.87263 4.38883 3.70907 4.55242C3.54552 4.71605 3.54555 4.98125 3.70914 5.14484C3.87299 5.30797 4.13793 5.30791 4.30172 5.14471Z" fill="#16375A"/>
<path d="M15.1004 3.98492C14.8353 3.07707 14.2796 2.28133 13.5185 1.7199C11.9521 0.490947 10.4993 -0.0174676 8.80583 0.0677154C7.86173 0.133752 6.92367 0.268323 5.99908 0.470363C4.77451 0.716815 3.89739 1.13406 3.31766 1.74592C2.84438 2.25086 2.47919 2.84713 2.24445 3.49817C2.14228 3.79306 2.05913 4.09419 1.99551 4.39971L1.97008 4.50885C1.89914 4.77899 1.80197 5.04155 1.67994 5.29278C1.62297 5.4206 1.56541 5.54829 1.51632 5.67873C1.48584 5.74475 1.46953 5.81642 1.46841 5.88912C1.48127 5.98088 1.59551 6.08547 1.71647 6.19621C1.83898 6.28228 1.94153 6.39371 2.01716 6.52292C2.09278 6.65214 2.13971 6.79613 2.15475 6.94509C2.14986 7.08794 2.1096 7.22735 2.0376 7.35082C1.66355 8.13894 1.20515 8.88419 0.670446 9.57349C0.440193 9.85444 0.393462 9.96387 0.392578 10.0089C0.447722 10.0607 0.506612 10.1084 0.568769 10.1516C0.647516 10.2064 0.730684 10.2546 0.817413 10.2957C1.07336 10.4263 1.424 10.605 1.49384 10.9718C1.53735 11.1978 1.50926 11.4318 1.4135 11.6411C1.36235 11.7484 1.30976 11.8421 1.26391 11.9233C1.24814 11.9509 1.23089 11.9815 1.21571 12.0093C1.33872 12.1075 1.50964 12.2356 1.58154 12.2887C1.61369 12.3124 1.64076 12.3424 1.66112 12.3768C1.68149 12.4112 1.69475 12.4494 1.70012 12.489C1.70548 12.5286 1.70285 12.5689 1.69237 12.6075C1.68189 12.6461 1.66378 12.6822 1.6391 12.7136C1.59489 12.7715 1.55652 12.8336 1.52457 12.899C1.54561 12.9114 1.56724 12.9237 1.58854 12.9358C1.71914 12.9922 1.83602 13.0761 1.93118 13.1819C2.02634 13.2876 2.09753 13.4126 2.13989 13.5484C2.18303 13.7605 2.1735 13.98 2.11214 14.1876C2.0984 14.2495 2.08439 14.3115 2.07621 14.3734C2.05893 14.5527 2.08364 14.7335 2.14837 14.9015C2.21231 15.1797 2.48524 15.3572 2.76546 15.3028C3.6356 15.0906 4.49364 14.8316 5.33584 14.5268L5.33761 14.5262C5.62657 14.4275 5.89073 14.335 6.10517 14.2599C6.33746 14.1784 6.51306 14.1172 6.60132 14.0893C7.84457 13.6991 8.09672 13.2497 8.08942 12.9414C8.08839 12.8626 8.11852 12.7865 8.17324 12.7298C8.22797 12.673 8.30287 12.6402 8.38169 12.6383C8.46051 12.6365 8.53687 12.6658 8.59419 12.7199C8.65151 12.7741 8.68516 12.8486 8.68783 12.9274C8.70537 13.6745 8.06373 14.2574 6.78104 14.6601C6.69602 14.6868 6.52713 14.7461 6.30303 14.8246C6.23408 14.8488 6.15986 14.8748 6.08155 14.9022C6.57607 15.4494 6.9371 16.1037 7.13634 16.8138H13.9528C13.949 16.8083 13.9449 16.8027 13.9408 16.7973C13.8379 16.6652 13.7471 16.5241 13.6693 16.3757C13.5215 16.0725 13.3974 15.7582 13.2983 15.4357C13.1166 14.8237 12.9911 14.1964 12.9234 13.5616C12.8047 12.561 12.9555 11.5467 13.3603 10.6239C13.5997 10.1256 13.8951 9.65614 14.2406 9.22458C14.4148 8.98994 14.5948 8.74745 14.7511 8.50113C15.1638 7.86054 15.3856 7.1157 15.3907 6.35369C15.4077 5.55428 15.31 4.75656 15.1004 3.98492ZM2.59418 5.05729C2.56639 5.0295 2.54435 4.99651 2.52932 4.96021C2.51429 4.9239 2.50656 4.88498 2.50658 4.84569C2.50656 4.80639 2.51429 4.76748 2.52932 4.73117C2.54435 4.69486 2.56639 4.66187 2.59417 4.63408C2.62196 4.60629 2.65495 4.58425 2.69126 4.56922C2.72757 4.55419 2.76648 4.54647 2.80578 4.54648H3.03476C3.05321 4.48645 3.07731 4.4283 3.10672 4.37281L2.94489 4.21089C2.91712 4.18311 2.89508 4.15013 2.88005 4.11384C2.86501 4.07754 2.85727 4.03864 2.85727 3.99936C2.85727 3.96007 2.86501 3.92117 2.88005 3.88487C2.89508 3.84858 2.91712 3.8156 2.94489 3.78782C2.97267 3.76004 3.00565 3.73801 3.04195 3.72297C3.07824 3.70794 3.11714 3.7002 3.15643 3.7002C3.19571 3.7002 3.23461 3.70794 3.27091 3.72297C3.3072 3.73801 3.34018 3.76004 3.36796 3.78782L3.53028 3.95024C3.58562 3.921 3.64358 3.897 3.70339 3.87857V3.6489C3.70339 3.56955 3.73492 3.49345 3.79103 3.43734C3.84714 3.38122 3.92324 3.3497 4.0026 3.3497C4.08195 3.3497 4.15805 3.38122 4.21417 3.43734C4.27028 3.49345 4.3018 3.56955 4.3018 3.6489V3.87854C4.36161 3.89698 4.41957 3.92098 4.47492 3.9502L4.63723 3.78782C4.66501 3.76004 4.69799 3.73801 4.73428 3.72297C4.77058 3.70794 4.80948 3.7002 4.84877 3.7002C4.88805 3.7002 4.92695 3.70794 4.96325 3.72297C4.99954 3.73801 5.03252 3.76004 5.0603 3.78782C5.08808 3.8156 5.11011 3.84858 5.12515 3.88487C5.14018 3.92117 5.14792 3.96007 5.14792 3.99936C5.14792 4.03864 5.14018 4.07754 5.12515 4.11384C5.11011 4.15013 5.08808 4.18311 5.0603 4.21089L4.89848 4.37281C4.92789 4.4283 4.95199 4.48645 4.97044 4.54648H5.19941C5.27877 4.54648 5.35487 4.57801 5.41098 4.63412C5.46709 4.69023 5.49862 4.76633 5.49862 4.84569C5.49862 4.92504 5.46709 5.00115 5.41098 5.05726C5.35487 5.11337 5.27877 5.14489 5.19941 5.14489H4.97044C4.95198 5.20492 4.92789 5.26307 4.89848 5.31856L5.0603 5.48049C5.11517 5.53685 5.14565 5.61255 5.14512 5.69121C5.14459 5.76987 5.11311 5.84516 5.05749 5.90078C5.00187 5.9564 4.92658 5.98788 4.84792 5.98841C4.76926 5.98893 4.69356 5.95846 4.6372 5.90359L4.47488 5.74124C4.41954 5.7705 4.36158 5.79451 4.30177 5.81297V6.04254C4.30177 6.12189 4.27025 6.198 4.21413 6.25411C4.15802 6.31022 4.08192 6.34174 4.00256 6.34174C3.92321 6.34174 3.84711 6.31022 3.79099 6.25411C3.73488 6.198 3.70336 6.12189 3.70336 6.04254V5.81297C3.64353 5.79451 3.58556 5.7705 3.53021 5.74124L3.36793 5.90359C3.31157 5.95846 3.23587 5.98893 3.15721 5.98841C3.07855 5.98788 3.00326 5.9564 2.94764 5.90078C2.89202 5.84516 2.86053 5.76987 2.86001 5.69121C2.85948 5.61255 2.88996 5.53685 2.94483 5.48049L3.10662 5.3186C3.07723 5.2631 3.05315 5.20495 3.03469 5.14493H2.80572C2.72637 5.14492 2.65028 5.11339 2.59418 5.05729ZM6.09696 8.73531H5.75525C5.72737 8.84242 5.68458 8.94509 5.62814 9.04031L5.87021 9.28244C5.89799 9.31022 5.92002 9.34319 5.93506 9.37949C5.95009 9.41579 5.95783 9.45469 5.95783 9.49397C5.95783 9.53326 5.95009 9.57216 5.93506 9.60845C5.92002 9.64475 5.89799 9.67773 5.87021 9.70551C5.84243 9.73328 5.80945 9.75532 5.77316 9.77035C5.73686 9.78539 5.69796 9.79313 5.65868 9.79313C5.61939 9.79313 5.58049 9.78539 5.54419 9.77035C5.5079 9.75532 5.47492 9.73328 5.44714 9.70551L5.20508 9.46334C5.10987 9.51973 5.00724 9.5625 4.90018 9.59041V9.93209C4.90018 10.0114 4.86865 10.0875 4.81254 10.1437C4.75643 10.1998 4.68033 10.2313 4.60097 10.2313C4.52162 10.2313 4.44552 10.1998 4.3894 10.1437C4.33329 10.0875 4.30177 10.0114 4.30177 9.93209V9.59041C4.1947 9.5625 4.09207 9.51973 3.99687 9.46334L3.7548 9.70551C3.71769 9.74273 3.67141 9.76952 3.62065 9.78318C3.56989 9.79683 3.51642 9.79688 3.46563 9.7833C3.41485 9.76973 3.36853 9.74301 3.33135 9.70585C3.29418 9.66868 3.26744 9.62238 3.25385 9.5716C3.24027 9.5208 3.24032 9.46733 3.25399 9.41656C3.26766 9.36579 3.29446 9.31952 3.3317 9.2824L3.57377 9.04027C3.51733 8.94507 3.47454 8.84242 3.44667 8.73531H3.10495C3.0256 8.73531 2.94949 8.70379 2.89338 8.64767C2.83727 8.59156 2.80575 8.51546 2.80575 8.43611C2.80575 8.35675 2.83727 8.28065 2.89338 8.22454C2.94949 8.16842 3.0256 8.1369 3.10495 8.1369H3.44667C3.47454 8.02979 3.51733 7.92712 3.57377 7.8319L3.3317 7.58977C3.29448 7.55265 3.26769 7.50638 3.25403 7.45562C3.24037 7.40485 3.24033 7.35139 3.25391 7.3006C3.26748 7.24982 3.2942 7.2035 3.33136 7.16632C3.36853 7.12915 3.41483 7.10241 3.46561 7.08882C3.51641 7.07525 3.56988 7.0753 3.62065 7.08897C3.67142 7.10264 3.71769 7.12944 3.7548 7.16667L3.99687 7.40884C4.09207 7.35245 4.1947 7.30968 4.30177 7.28177V6.94008C4.30177 6.86073 4.33329 6.78463 4.3894 6.72851C4.44552 6.6724 4.52162 6.64088 4.60097 6.64088C4.68033 6.64088 4.75643 6.6724 4.81254 6.72851C4.86865 6.78463 4.90018 6.86073 4.90018 6.94008V7.28177C5.00724 7.30968 5.10987 7.35245 5.20508 7.40884L5.44714 7.16667C5.48428 7.12955 5.53053 7.10286 5.58125 7.08928C5.63197 7.0757 5.68537 7.0757 5.73609 7.08929C5.78681 7.10288 5.83306 7.12958 5.87019 7.1667C5.90732 7.20382 5.93403 7.25006 5.94764 7.30078C5.96122 7.3515 5.96122 7.40491 5.94763 7.45563C5.93404 7.50635 5.90734 7.55261 5.87021 7.58974L5.62814 7.83187C5.68459 7.92708 5.72737 8.02975 5.75525 8.13687H6.09696C6.17631 8.13687 6.25242 8.16839 6.30853 8.2245C6.36464 8.28061 6.39616 8.35672 6.39616 8.43607C6.39617 8.47537 6.38843 8.51428 6.3734 8.55058C6.35836 8.58689 6.33633 8.61988 6.30854 8.64766C6.28076 8.67545 6.24777 8.69749 6.21147 8.71253C6.17517 8.72757 6.13626 8.73531 6.09696 8.73531ZM14.4085 6.04352C14.3962 6.11266 14.3599 6.17526 14.3061 6.22035C14.2522 6.26544 14.1842 6.29014 14.114 6.29013H13.4937C13.4248 6.52425 13.331 6.75033 13.214 6.9645L13.6529 7.40337C13.7026 7.45303 13.7332 7.5186 13.7394 7.58858C13.7456 7.65857 13.727 7.7285 13.6868 7.78612C13.3992 8.19885 13.0407 8.55735 12.6279 8.845C12.5703 8.88515 12.5004 8.90377 12.4304 8.8976C12.3605 8.89143 12.2949 8.86087 12.2452 8.81126L11.8063 8.37239C11.592 8.48939 11.3659 8.58313 11.1317 8.65202V9.27249C11.1316 9.34271 11.1069 9.41067 11.0618 9.46451C11.0167 9.51835 10.9542 9.55463 10.885 9.56701C10.3897 9.65485 9.88268 9.65485 9.38729 9.56701C9.31817 9.55463 9.25561 9.51835 9.21053 9.46451C9.16545 9.41067 9.14073 9.34271 9.14068 9.27249V8.65202C8.90646 8.58314 8.68028 8.4894 8.46602 8.37239L8.02714 8.81126C7.97742 8.86086 7.91185 8.89141 7.84189 8.89758C7.77193 8.90375 7.70203 8.88514 7.64439 8.845C7.23166 8.55735 6.87316 8.19885 6.58551 7.78612C6.54531 7.7285 6.52667 7.65857 6.53287 7.58858C6.53907 7.5186 6.56971 7.45303 6.61941 7.40337L7.05829 6.9645C6.94131 6.75032 6.84756 6.52425 6.77865 6.29013H6.15835C6.08812 6.29015 6.02012 6.26545 5.96627 6.22036C5.91242 6.17527 5.87615 6.11266 5.86383 6.04352C5.7758 5.54805 5.7758 5.04094 5.86383 4.54547C5.87616 4.47633 5.91243 4.41373 5.96627 4.36864C6.02012 4.32355 6.08812 4.29885 6.15835 4.29885H6.77865C6.84755 4.06474 6.94129 3.83866 7.05829 3.62449L6.61941 3.18562C6.56972 3.13595 6.53909 3.07039 6.53289 3.0004C6.52669 2.93042 6.54532 2.86049 6.58551 2.80287C6.87316 2.39014 7.23166 2.03164 7.64439 1.74399C7.70196 1.70367 7.7719 1.68496 7.84191 1.69113C7.91192 1.6973 7.97751 1.72796 8.02714 1.77772L8.46602 2.2166C8.68029 2.0996 8.90646 2.00586 9.14068 1.93696V1.31653C9.14072 1.24631 9.16544 1.17834 9.21052 1.12451C9.2556 1.07067 9.31817 1.03439 9.38729 1.02201C9.88272 0.934632 10.3896 0.934632 10.885 1.02201C10.9542 1.03439 11.0167 1.07068 11.0618 1.12451C11.1069 1.17835 11.1316 1.24631 11.1317 1.31653V1.937C11.3659 2.00588 11.5921 2.09962 11.8063 2.21663L12.2452 1.77776C12.2948 1.72798 12.3604 1.6973 12.4304 1.69113C12.5004 1.68496 12.5704 1.70369 12.6279 1.74402C13.0407 2.03167 13.3992 2.39017 13.6868 2.8029C13.727 2.86052 13.7457 2.93045 13.7395 3.00044C13.7333 3.07042 13.7026 3.13599 13.6529 3.18565L13.214 3.62452C13.331 3.8387 13.4248 4.06478 13.4937 4.29889H14.114C14.1842 4.29887 14.2522 4.32358 14.3061 4.36867C14.3599 4.41376 14.3962 4.47636 14.4085 4.5455C14.4966 5.04096 14.4966 5.54806 14.4085 6.04352Z" fill="#16375A"/>
<path d="M13.2598 4.89344C13.1917 4.89345 13.1255 4.87017 13.0724 4.82744C13.0192 4.78471 12.9823 4.72511 12.9676 4.65851C12.8959 4.3304 12.7663 4.0177 12.5849 3.73505C12.5479 3.67763 12.5317 3.60927 12.5389 3.54135C12.5462 3.47342 12.5766 3.41005 12.6249 3.36179L13.0448 2.94193C12.8784 2.73498 12.6901 2.54668 12.4832 2.38034L12.0633 2.80007C12.0151 2.84834 11.9517 2.87866 11.8839 2.88599C11.816 2.89333 11.7477 2.87723 11.6902 2.84038C11.4075 2.65876 11.0946 2.52905 10.7663 2.45734C10.6997 2.44269 10.6401 2.40573 10.5974 2.3526C10.5547 2.29946 10.5314 2.23332 10.5314 2.16514V1.57204C10.2674 1.5437 10.0012 1.5437 9.73722 1.57204V2.16517C9.73721 2.23336 9.71391 2.29949 9.67119 2.35263C9.62846 2.40577 9.56888 2.44272 9.50229 2.45737C9.174 2.52911 8.86114 2.65882 8.5784 2.84042C8.52098 2.8774 8.45261 2.89357 8.38471 2.88623C8.3168 2.87889 8.25347 2.84849 8.20527 2.8001L7.78541 2.3804C7.57846 2.54674 7.39016 2.73504 7.22382 2.94199L7.64368 3.36185C7.69202 3.41012 7.72237 3.47349 7.72965 3.54141C7.73693 3.60933 7.72072 3.6777 7.6837 3.73511C7.5023 4.01777 7.37269 4.33047 7.30095 4.65857C7.28632 4.72518 7.24937 4.78478 7.19623 4.82751C7.14309 4.87023 7.07694 4.89352 7.00875 4.89351H6.41562C6.38718 5.15756 6.38718 5.42391 6.41562 5.68797H7.00875C7.07694 5.68795 7.14309 5.71124 7.19623 5.75397C7.24937 5.79669 7.28632 5.8563 7.30095 5.9229C7.37269 6.251 7.5023 6.56371 7.6837 6.84636C7.72072 6.90377 7.73693 6.97214 7.72965 7.04006C7.72237 7.10798 7.69202 7.17136 7.64368 7.21962L7.22382 7.63944C7.39016 7.8464 7.57846 8.0347 7.78541 8.20104L8.20527 7.78131C8.25346 7.73289 8.31679 7.70248 8.3847 7.69514C8.45261 7.6878 8.52098 7.70399 8.5784 7.74099C8.86112 7.92261 9.17399 8.05233 9.50229 8.12403C9.56888 8.13869 9.62846 8.17564 9.67119 8.22878C9.71391 8.28192 9.73721 8.34805 9.73722 8.41623V9.00937C10.0012 9.03771 10.2674 9.03771 10.5314 9.00937V8.41623C10.5314 8.34806 10.5547 8.28192 10.5974 8.22879C10.6401 8.17565 10.6997 8.13869 10.7663 8.12403C11.0946 8.0523 11.4074 7.92259 11.6902 7.74099C11.7476 7.70413 11.816 7.68803 11.8838 7.69536C11.9517 7.7027 12.015 7.73302 12.0633 7.78131L12.4832 8.20104C12.6901 8.0347 12.8784 7.8464 13.0447 7.63944L12.6249 7.21959C12.5765 7.17132 12.5462 7.10795 12.5389 7.04003C12.5316 6.97211 12.5478 6.90374 12.5849 6.84633C12.7663 6.56367 12.8959 6.25097 12.9676 5.92286C12.9822 5.85626 13.0192 5.79666 13.0723 5.75393C13.1255 5.71121 13.1916 5.68792 13.2598 5.68793H13.853C13.8814 5.42388 13.8814 5.15753 13.853 4.89347H13.2598V4.89344ZM10.1343 7.23546C9.06027 7.23546 8.18953 6.36475 8.18953 5.29065C8.18953 4.21659 9.06024 3.34585 10.1343 3.34585C11.2084 3.34585 12.0791 4.21656 12.0791 5.29065C12.0779 6.36422 11.2079 7.23421 10.1343 7.23546Z" fill="#16375A"/>
</g>
<defs>
<clipPath id="clip0_16520_213807">
<rect width="15" height="15" fill="white"/>
</clipPath>
</defs>
</svg>
