<svg width="50" height="50" viewBox="0 0 50 50" fill="none" xmlns="http://www.w3.org/2000/svg">
<g clip-path="url(#clip0_12348_182167)">
<path fill-rule="evenodd" clip-rule="evenodd" d="M25 0C11.2109 0 0 11.2109 0 25C0 38.7891 11.2109 50 25 50C38.7891 50 50 38.7891 50 25C50 11.2109 38.7891 0 25 0Z" fill="#4BAE4F"/>
<path fill-rule="evenodd" clip-rule="evenodd" d="M37.0898 16.5708C37.6953 17.1763 37.6953 18.1724 37.0898 18.7778L22.4414 33.4263C22.1387 33.729 21.7383 33.8853 21.3379 33.8853C20.9375 33.8853 20.5371 33.729 20.2344 33.4263L12.9102 26.1021C12.3047 25.4966 12.3047 24.5005 12.9102 23.895C13.5156 23.2896 14.5117 23.2896 15.1172 23.895L21.3379 30.1157L34.8828 16.5708C35.4883 15.9556 36.4844 15.9556 37.0898 16.5708Z" fill="white"/>
</g>
<defs>
<clipPath id="clip0_12348_182167">
<rect width="50" height="50" fill="white"/>
</clipPath>
</defs>
</svg>
