<svg width="50" height="50" viewBox="0 0 50 50" fill="none" xmlns="http://www.w3.org/2000/svg">
<g clip-path="url(#clip0_6602_104017)">
<path fill-rule="evenodd" clip-rule="evenodd" d="M25 0C11.2109 0 0 11.2109 0 25C0 38.7891 11.2109 50 25 50C38.7891 50 50 38.7891 50 25C50 11.2109 38.7891 0 25 0Z" fill="#4BAE4F"/>
<path fill-rule="evenodd" clip-rule="evenodd" d="M37.0898 16.5728C37.6953 17.1782 37.6953 18.1743 37.0898 18.7798L22.4414 33.4282C22.1387 33.731 21.7383 33.8872 21.3379 33.8872C20.9375 33.8872 20.5371 33.731 20.2344 33.4282L12.9102 26.104C12.3047 25.4985 12.3047 24.5024 12.9102 23.897C13.5156 23.2915 14.5117 23.2915 15.1172 23.897L21.3379 30.1177L34.8828 16.5728C35.4883 15.9575 36.4844 15.9575 37.0898 16.5728Z" fill="white"/>
</g>
<defs>
<clipPath id="clip0_6602_104017">
<rect width="50" height="50" fill="white"/>
</clipPath>
</defs>
</svg>
