<svg width="15" height="15" viewBox="0 0 15 15" fill="none" xmlns="http://www.w3.org/2000/svg">
<path d="M12.6336 3.21902C12.4928 3.22297 12.3592 3.28183 12.2613 3.38303L5.1726 10.454L2.73877 8.01486C2.68851 7.96268 2.62824 7.92116 2.56158 7.89278C2.49492 7.86441 2.42322 7.84975 2.35077 7.84969C1.86377 7.84819 1.62244 8.44019 1.97227 8.77952L4.7806 11.5947C4.7911 11.606 4.80227 11.6165 4.81344 11.626C4.87209 11.6811 4.94227 11.7223 5.01887 11.7469C5.09548 11.7714 5.17658 11.7786 5.2563 11.7679C5.33602 11.7571 5.41235 11.7288 5.47974 11.6849C5.54714 11.641 5.60391 11.5826 5.64594 11.514L13.0261 4.15019C13.3828 3.80652 13.1284 3.20402 12.6336 3.21902Z" fill="#D4B86B"/>
</svg>
