<svg width="20" height="20" viewBox="0 0 20 20" fill="none" xmlns="http://www.w3.org/2000/svg">
<path d="M2.42988 5.85938L3.46773 18.3881C3.54211 19.2916 4.31172 20 5.21867 20H14.7814C15.6883 20 16.4579 19.2916 16.5323 18.3881L17.5701 5.85938H2.42988ZM7.06977 17.6562C6.76305 17.6562 6.505 17.4177 6.48555 17.1069L5.89961 7.65379C5.87957 7.33051 6.12504 7.05242 6.44777 7.03238C6.7825 7.00891 7.04859 7.25727 7.06918 7.58055L7.65512 17.0337C7.67586 17.3684 7.41098 17.6562 7.06977 17.6562ZM10.5859 17.0703C10.5859 17.3942 10.3239 17.6562 10 17.6562C9.67613 17.6562 9.41406 17.3942 9.41406 17.0703V7.61719C9.41406 7.29332 9.67613 7.03125 10 7.03125C10.3239 7.03125 10.5859 7.29332 10.5859 7.61719V17.0703ZM14.1004 7.65383L13.5145 17.107C13.4952 17.4145 13.2388 17.6709 12.893 17.6551C12.5703 17.6351 12.3248 17.357 12.3449 17.0337L12.9308 7.58059C12.9509 7.2573 13.2341 7.02211 13.5522 7.03242C13.875 7.05246 14.1204 7.33055 14.1004 7.65383ZM17.6172 2.34375H14.1016V1.75781C14.1016 0.788516 13.313 0 12.3438 0H7.65625C6.68695 0 5.89844 0.788516 5.89844 1.75781V2.34375H2.38281C1.73559 2.34375 1.21094 2.8684 1.21094 3.51562C1.21094 4.16277 1.73559 4.6875 2.38281 4.6875H17.6172C18.2644 4.6875 18.7891 4.16277 18.7891 3.51562C18.7891 2.8684 18.2644 2.34375 17.6172 2.34375ZM12.9297 2.34375H7.07031V1.75781C7.07031 1.43453 7.33297 1.17188 7.65625 1.17188H12.3438C12.667 1.17188 12.9297 1.43453 12.9297 1.75781V2.34375Z" fill="#949494"/>
</svg>
