<svg width="20" height="20" viewBox="0 0 20 20" fill="none" xmlns="http://www.w3.org/2000/svg">
<path d="M16.875 3.5196H11.1289C10.7148 3.5196 10.3164 3.35554 10.0234 3.06257L8.44141 1.48445C8.15234 1.19539 7.75781 1.03132 7.34766 1.02742L3.14453 1.00007C1.41016 0.988354 0 2.3907 0 4.12507V15.2384C0 16.9649 1.39844 18.3634 3.125 18.3634H16.875C18.6016 18.3634 20 16.9649 20 15.2384V6.6446C20 4.91804 18.6016 3.5196 16.875 3.5196ZM10 5.37898C11.5 5.37898 12.7188 6.59382 12.7188 8.09773C12.7188 9.60164 11.5039 10.8165 10 10.8165C8.49609 10.8165 7.28125 9.59773 7.28125 8.09773C7.28125 6.59773 8.5 5.37898 10 5.37898ZM14.0781 16.5118H5.92188C5.18359 16.5118 4.66016 15.793 4.88672 15.0938L5.69141 12.586C5.99219 11.6485 7.01172 11.1446 7.94141 11.4805C8.48828 11.6798 9.17578 11.8282 10 11.8282C10.8242 11.8282 11.5117 11.6798 12.0586 11.4805C12.9844 11.1446 14.0078 11.6446 14.3047 12.586L15.1094 15.0938C15.3359 15.793 14.8125 16.5118 14.0781 16.5118Z" fill="#16375A"/>
</svg>
