<svg width="40" height="40" viewBox="0 0 40 40" fill="none" xmlns="http://www.w3.org/2000/svg">
<path d="M38.291 31.1826L23.0789 5.21286C21.7031 2.86134 18.3031 2.86134 16.9213 5.21286L1.70919 31.1826C0.315249 33.5583 2.0304 36.5522 4.78798 36.5522H35.2183C37.9698 36.5522 39.6849 33.5644 38.291 31.1826ZM20.0001 11.4735C21.3274 11.4735 22.3819 12.5947 22.3092 13.9219L21.6365 25.3644H18.3637L17.691 13.9219C17.6183 12.5947 18.6728 11.4735 20.0001 11.4735ZM20.0001 32.7159C18.6486 32.7159 17.5516 31.6189 17.5516 30.2674C17.5516 28.9159 18.6486 27.8189 20.0001 27.8189C21.3516 27.8189 22.4486 28.9159 22.4486 30.2674C22.4486 31.6189 21.3516 32.7159 20.0001 32.7159Z" fill="#F96264"/>
</svg>
