<svg width="38" height="34" viewBox="0 0 38 34" fill="none" xmlns="http://www.w3.org/2000/svg">
<path d="M37.291 28.1826L22.0789 2.21286C20.7031 -0.13866 17.3031 -0.13866 15.9213 2.21286L0.709188 28.1826C-0.684751 30.5583 1.0304 33.5522 3.78798 33.5522H34.2183C36.9698 33.5522 38.6849 30.5644 37.291 28.1826ZM19.0001 8.47346C20.3274 8.47346 21.3819 9.59467 21.3092 10.9219L20.6365 22.3644H17.3637L16.691 10.9219C16.6183 9.59467 17.6728 8.47346 19.0001 8.47346ZM19.0001 29.7159C17.6486 29.7159 16.5516 28.6189 16.5516 27.2674C16.5516 25.9159 17.6486 24.8189 19.0001 24.8189C20.3516 24.8189 21.4486 25.9159 21.4486 27.2674C21.4486 28.6189 20.3516 29.7159 19.0001 29.7159Z" fill="#F96264"/>
</svg>
