<svg width="25" height="25" viewBox="0 0 15 16" fill="none" xmlns="http://www.w3.org/2000/svg">
<g id="Frame">
<g id="Group">
<path id="Vector" fill-rule="evenodd" clip-rule="evenodd" d="M1.25 8C1.25 4.54813 4.04813 1.75 7.5 1.75C10.9519 1.75 13.75 4.54813 13.75 8C13.75 11.4519 10.9519 14.25 7.5 14.25C4.04813 14.25 1.25 11.4519 1.25 8ZM6.145 4.52813C6.053 4.39021 5.90999 4.29449 5.74742 4.26203C5.58485 4.22956 5.41604 4.263 5.27813 4.355C5.14021 4.447 5.04449 4.59001 5.01203 4.75258C4.97956 4.91515 5.013 5.08396 5.105 5.22188L6.54063 7.375H5.625C5.45924 7.375 5.30027 7.44085 5.18306 7.55806C5.06585 7.67527 5 7.83424 5 8C5 8.16576 5.06585 8.32473 5.18306 8.44194C5.30027 8.55915 5.45924 8.625 5.625 8.625H6.875V9.25H5.625C5.45924 9.25 5.30027 9.31585 5.18306 9.43306C5.06585 9.55027 5 9.70924 5 9.875C5 10.0408 5.06585 10.1997 5.18306 10.3169C5.30027 10.4342 5.45924 10.5 5.625 10.5H6.875V11.125C6.875 11.2908 6.94085 11.4497 7.05806 11.5669C7.17527 11.6842 7.33424 11.75 7.5 11.75C7.66576 11.75 7.82473 11.6842 7.94194 11.5669C8.05915 11.4497 8.125 11.2908 8.125 11.125V10.5H9.375C9.54076 10.5 9.69973 10.4342 9.81694 10.3169C9.93415 10.1997 10 10.0408 10 9.875C10 9.70924 9.93415 9.55027 9.81694 9.43306C9.69973 9.31585 9.54076 9.25 9.375 9.25H8.125V8.625H9.375C9.54076 8.625 9.69973 8.55915 9.81694 8.44194C9.93415 8.32473 10 8.16576 10 8C10 7.83424 9.93415 7.67527 9.81694 7.55806C9.69973 7.44085 9.54076 7.375 9.375 7.375H8.45938L9.895 5.22188C9.987 5.08396 10.0204 4.91515 9.98797 4.75258C9.95551 4.59001 9.85979 4.447 9.72188 4.355C9.58396 4.263 9.41515 4.22956 9.25258 4.26203C9.09001 4.29449 8.947 4.39021 8.855 4.52813L7.5 6.56063L6.145 4.52813Z" fill="#16375A"/>
</g>
</g>
</svg>
